<?xml version="1.0" encoding="UTF-8" standalone="no"?>
<svg
   xmlns:dc="http://purl.org/dc/elements/1.1/"
   xmlns:cc="http://creativecommons.org/ns#"
   xmlns:rdf="http://www.w3.org/1999/02/22-rdf-syntax-ns#"
   xmlns:svg="http://www.w3.org/2000/svg"
   xmlns="http://www.w3.org/2000/svg"
   viewBox="0 0 566.93335 566.93335"
   height="566.93335"
   width="566.93335"
   xml:space="preserve"
   id="svg2"
   version="1.1"><metadata
     id="metadata8"><rdf:RDF><cc:Work
         rdf:about=""><dc:format>image/svg+xml</dc:format><dc:type
           rdf:resource="http://purl.org/dc/dcmitype/StillImage" /></cc:Work></rdf:RDF></metadata><defs
     id="defs6"><clipPath
       id="clipPath22"
       clipPathUnits="userSpaceOnUse"><path
         id="path20"
         d="m 3098.49,1647.94 0.05,1461.02 H 1163.27 l 0.24,-1461.02 c 0,-461.71 433.16,-835.971 967.46,-835.971 534.31,0 967.52,374.261 967.52,835.971 z" /></clipPath><clipPath
       id="clipPath160"
       clipPathUnits="userSpaceOnUse"><path
         id="path158"
         d="m 3076.34,1637.72 0.08,1454.37 H 1183.01 l 0.25,-1454.37 c 0,-459.58 423.8,-823.431 946.58,-823.431 522.72,0 946.5,363.851 946.5,823.431 z" /></clipPath></defs><g
     transform="matrix(1.3333333,0,0,-1.3333333,0,566.93333)"
     id="g10"><g
       transform="scale(0.1)"
       id="g12"><path
         id="path14"
         style="fill:#ffffff;fill-opacity:1;fill-rule:nonzero;stroke:none"
         d="m 3098.49,1647.94 0.05,1461.02 H 1163.27 l 0.24,-1461.02 c 0,-461.71 433.16,-835.971 967.46,-835.971 534.31,0 967.52,374.261 967.52,835.971 v 0" /><g
         id="g16"><g
           clip-path="url(#clipPath22)"
           id="g18"><path
             id="path24"
             style="fill:#ffffff;fill-opacity:1;fill-rule:nonzero;stroke:none"
             d="M 3098.54,3108.96 H 1163.27 l 0.24,-1386.99 c -1.12,-16.4 -1.84,-32.86 -1.84,-49.55 0,-461.63 433.16,-835.881 967.47,-835.881 524.78,0 951.7,361.071 966.75,811.401 h 2.6 l 0.05,1461.02 v 0" /></g></g><path
         id="path26"
         style="fill:#1a5dad;fill-opacity:1;fill-rule:nonzero;stroke:none"
         d="m 604.469,2516.72 c 22.031,-6.62 40.14,-12.1 49.426,-16.18 6.371,-2.92 11.07,-5.62 10.597,-10.45 -0.144,-2.22 -0.523,-5.12 -1.156,-7.18 -0.426,-1.38 0.137,-2.04 0.84,-2.26 1.351,-0.41 2.152,0.59 2.949,3.15 2.07,6.9 5.762,21.52 6.063,22.67 0.738,2.29 12.187,30.36 18.167,50.1 11.79,38.99 2,64.5 -5.347,77.46 -9.653,16.93 -28.317,35.62 -57.231,44.36 -27.293,8.25 -49.582,3.2 -64.972,-4.66 -36.496,-18.74 -47.067,-61.37 -53.946,-84.07 -4.171,-13.76 -7.839,-28.42 -8.699,-31.17 -0.344,-1.14 -5.402,-15.39 -8.492,-25.74 -0.777,-2.51 -0.664,-3.8 0.676,-4.2 0.957,-0.29 1.695,0.47 1.976,1.42 0.61,2.05 2.024,5.89 3.008,7.59 3.918,7.1 8.156,7.83 16.07,5.9 7.497,-1.76 13.887,-3.71 49.688,-14.55 l 40.383,-12.19 z m -38.207,32.6 c -17.672,5.35 -41.063,12.4 -48.801,15.02 -2.555,0.74 -3.445,1.82 -3.766,4.14 -0.34,2.1 1.535,10.8 2.93,15.4 8.211,27.26 19.371,52.43 48.574,67.17 12.696,6.41 35.352,13.35 64.457,4.54 21.11,-6.39 41.207,-19.47 49.282,-34.94 9.437,-17.61 11.277,-39.69 4.835,-61.03 -8.187,-27.08 -15.707,-34.57 -20.945,-36.23 -3.117,-1.09 -12.418,1.25 -18.219,2.75 -4.421,1.08 -25.605,7.25 -49.918,14.59 l -28.429,8.59 v 0" /><path
         id="path28"
         style="fill:#1a5dad;fill-opacity:1;fill-rule:nonzero;stroke:none"
         d="m 661.379,2729.56 c -25.293,11.41 -29.875,13.46 -35.18,15.48 -5.703,2.15 -8.863,2.05 -12.414,-2.79 -0.902,-1.18 -2.308,-3.86 -2.961,-5.31 -0.281,-0.67 -0.906,-1.16 -1.566,-0.88 -0.973,0.43 -0.953,1.42 -0.113,3.2 3.281,7.33 8.214,17 8.89,18.46 0.66,1.42 4.543,11.42 6.735,16.28 0.804,1.78 1.507,2.44 2.492,2 0.66,-0.27 0.703,-1.08 0.375,-1.75 -0.528,-1.09 -0.766,-2.15 -1.36,-4.28 -1.316,-4.67 1.02,-7.27 6.543,-10.17 5.063,-2.65 9.629,-4.68 34.946,-16.12 l 22.683,-10.24 c 23.383,-10.55 35.813,-9.88 45.598,-5.92 11.078,4.6 15.812,11.26 19.961,20.52 4.48,9.88 4.172,21.74 -0.172,30.75 -5.887,11.63 -18.82,19.76 -35.531,27.3 L 700,2815.28 c -25.312,11.38 -29.84,13.45 -35.164,15.47 -5.676,2.15 -8.852,2.02 -12.402,-2.82 -0.946,-1.15 -2.329,-3.84 -2.985,-5.31 -0.301,-0.66 -0.926,-1.13 -1.582,-0.85 -0.929,0.45 -0.91,1.38 -0.097,3.18 3.281,7.28 7.804,16 8.214,17 0.516,1.11 3.489,9 5.676,13.83 0.797,1.81 1.504,2.43 2.477,2.02 0.625,-0.31 0.652,-1.09 0.375,-1.75 -0.473,-1.14 -0.942,-2.12 -1.348,-4.28 -1.148,-4.73 1.012,-7.27 6.527,-10.16 5.067,-2.65 9.633,-4.75 34.942,-16.11 l 17.387,-7.87 c 17.523,-7.88 36.105,-18.61 41.789,-36.79 5.101,-16.35 1.23,-29.28 -3.102,-38.87 -2.469,-5.5 -10.519,-21.59 -26.57,-28.21 -11.223,-4.48 -25.399,-5.56 -49.071,5.13 l -23.687,10.67 v 0" /><path
         id="path30"
         style="fill:#1a5dad;fill-opacity:1;fill-rule:nonzero;stroke:none"
         d="m 755.098,2892.8 c -0.778,0.45 -0.895,0.93 -0.528,1.52 1.332,2.34 5.746,10.06 7.176,11.91 2.613,3.44 5.297,7.05 11.801,10.28 15.016,7.22 30.219,2.6 39.496,-2.68 17.484,-9.99 14.285,-25.99 9.5,-34.34 -1.586,-2.74 -5.68,-9.22 -10.094,-12.28 -5.062,-3.46 -7.195,-2.23 -15.043,1.63 -2.41,1.19 -21.593,12.12 -33.511,18.94 l -8.797,5.02 z m 9.148,-21.63 c 14.875,-8.45 27.098,-15.46 33.16,-19.91 4.102,-3.2 7.071,-5.94 5.922,-9.38 -0.484,-1.57 -1.254,-3.59 -2.019,-4.99 -0.551,-0.91 -0.25,-1.48 0.199,-1.77 0.91,-0.52 1.68,0.07 2.652,1.77 2.649,4.65 7.77,14.63 8.184,15.44 0.699,1.21 10.652,16.48 12.676,20.03 15.07,26.44 5.367,49.2 -11.18,58.64 -18.074,10.34 -37.82,1.31 -47.879,-8.11 -3.449,11.6 -6.875,23.18 -19.539,30.43 -7.734,4.42 -26.359,7.65 -40.848,-17.7 -4.031,-7.1 -7.039,-13.37 -9.164,-17.09 -0.453,-0.76 -6.472,-10.24 -10.449,-17.21 -0.977,-1.71 -1.113,-2.64 -0.164,-3.16 0.621,-0.34 1.293,0.07 1.637,0.7 0.796,1.38 2.437,3.95 3.48,4.98 3.969,4.48 7.184,4.31 12.594,1.63 5.148,-2.49 9.461,-4.98 33.578,-18.76 l 27.16,-15.54 z m -58.152,49.63 c -0.906,0.53 -1.106,1.25 -0.629,2.82 0.801,2.81 2.519,6.16 3.496,7.86 8.629,15.15 25.613,13.02 38.48,5.67 6.329,-3.63 10.571,-9.11 12.457,-14.49 1.848,-5.35 0.907,-7.68 -4.043,-16.35 -3.257,-5.73 -5.328,-8.22 -5.984,-9.06 -0.769,-0.62 -1.219,-0.71 -2.332,-0.13 l -41.445,23.68 v 0" /><path
         id="path32"
         style="fill:#1a5dad;fill-opacity:1;fill-rule:nonzero;stroke:none"
         d="m 843.203,2999.15 c 21.582,-14.77 31.387,-20.62 35.836,-19.79 3.965,0.75 7.582,3.87 15.465,15.33 5.316,7.75 9.594,14.35 7.723,20.79 -1.012,3.52 -3.692,7.49 -6.204,9.85 -1.043,0.93 -1.597,1.74 -0.964,2.62 0.476,0.72 1.179,0.49 2.785,-0.63 1.636,-1.12 9.75,-8.15 13.187,-12.25 2.641,-3.36 2.969,-4.19 -2.363,-11.95 -14.492,-21.18 -21.996,-30.26 -27.855,-38.8 -0.911,-1.32 -6.375,-10.31 -9.418,-14.69 -1.114,-1.61 -1.864,-2.12 -2.774,-1.54 -0.418,0.29 -0.66,0.87 -0.062,1.78 0.894,1.32 1.8,3.27 2.425,4.82 1.434,3.34 -1.281,6.26 -5.156,9.79 -5.668,4.93 -17.297,12.91 -31.375,22.56 l -25.875,17.67 c -22.918,15.71 -27.023,18.54 -31.933,21.42 -5.18,3.14 -8.321,3.57 -12.68,-0.59 -1.117,-0.94 -2.953,-3.34 -3.863,-4.65 -0.411,-0.6 -1.114,-0.98 -1.664,-0.57 -0.911,0.59 -0.7,1.54 0.425,3.14 4.528,6.6 11.278,15.56 11.801,16.29 0.481,0.74 7.379,11.77 10.414,16.17 1.102,1.62 1.91,2.14 2.777,1.56 0.579,-0.42 0.497,-1.23 0.083,-1.78 -0.715,-1.03 -1.95,-3.21 -2.891,-5.16 -2.16,-4.78 -0.473,-7.66 4.48,-11.45 4.512,-3.52 8.61,-6.33 31.508,-22 l 26.168,-17.94 v 0" /><path
         id="path34"
         style="fill:#1a5dad;fill-opacity:1;fill-rule:nonzero;stroke:none"
         d="m 912.961,3094.64 c 13.426,-10.59 24.461,-19.31 30.902,-23.2 4.364,-2.79 8.117,-4.38 11.957,-0.62 1.84,1.74 4.535,4.59 5.535,5.86 0.653,0.83 1.325,0.8 1.747,0.42 0.66,-0.53 0.55,-1.55 -0.661,-3.1 -6.062,-7.71 -13.41,-16.18 -13.972,-16.82 -0.563,-0.74 -7.082,-9.91 -10.371,-14.08 -1.211,-1.53 -2.059,-2.03 -2.887,-1.36 -0.426,0.31 -0.625,0.94 0.027,1.77 1.008,1.25 2.047,3.16 2.758,4.64 1.621,3.24 -0.879,6.36 -4.496,10.12 -5.34,5.35 -16.383,14.04 -29.812,24.59 l -24.629,19.41 c -21.778,17.16 -25.696,20.26 -30.387,23.49 -4.996,3.49 -8.473,3.95 -11.606,1.4 -1.586,-1.19 -3.199,-2.89 -3.953,-3.87 -0.437,-0.55 -1.187,-0.89 -1.722,-0.46 -0.828,0.67 -0.551,1.58 0.64,3.12 3.653,4.63 11,13.12 11.555,13.78 0.559,0.74 7.078,9.84 10.379,14.08 1.215,1.52 2.055,2.01 2.871,1.32 0.566,-0.43 0.394,-1.23 -0.02,-1.79 -0.796,-0.96 -1.324,-1.92 -2.363,-3.82 -2.281,-4.29 -0.777,-7.31 3.891,-11.42 4.25,-3.8 8.195,-6.9 29.972,-24.07 l 24.645,-19.39 v 0" /><path
         id="path36"
         style="fill:#1a5dad;fill-opacity:1;fill-rule:nonzero;stroke:none"
         d="m 984.789,3138.79 c 10.899,-9.71 15.501,-11.59 19.811,-9.06 3,1.85 5.79,4.61 6.9,5.75 0.58,0.68 1.21,0.79 1.74,0.32 0.8,-0.74 0.32,-1.74 -1.16,-3.31 -6.95,-7.39 -12.201,-12.23 -13.291,-13.38 -1.109,-1.19 -5.836,-6.99 -11.324,-12.85 -1.211,-1.29 -2.078,-1.95 -2.992,-1.08 -0.512,0.49 -0.41,1.12 0.215,1.76 0.976,1.04 3.042,3.51 4.207,6.05 2.125,4.1 -0.997,8.29 -12.817,19.39 l -74.191,69.98 c -5.102,4.76 -6.129,6.49 -5.157,7.54 0.973,1.02 5.907,0.53 8.411,0.63 4.043,-0.12 43.086,-0.46 83.265,-0.59 25.814,-0.08 54.924,-0.81 63.114,-0.66 l -67.239,60.49 c -8.539,7.8 -12.261,9.57 -17.062,6.54 -2.739,-1.87 -5.653,-4.74 -6.629,-5.75 -0.86,-0.89 -1.387,-0.69 -1.891,-0.22 -0.789,0.79 0.074,1.93 1.539,3.46 5.465,5.86 11.742,11.7 13.067,13.13 1.363,1.43 4.965,6.09 9.996,11.38 1.316,1.44 2.289,2.23 3.101,1.5 0.528,-0.48 0.375,-1.36 -0.457,-2.29 -0.625,-0.62 -1.472,-1.54 -2.55,-3.48 -3.079,-5.11 -0.727,-8.33 7.035,-15.65 l 75.78,-71.69 c 8.57,-8.04 8.98,-8.92 8.11,-9.82 -0.98,-1.04 -3.87,-1.26 -17.2,-1.68 -2.64,-0.21 -39.27,-0.96 -66.96,-0.8 -30.363,0.17 -60.492,0.9 -69.062,1.12 l 63.691,-56.73 v 0" /><path
         id="path38"
         style="fill:#1a5dad;fill-opacity:1;fill-rule:nonzero;stroke:none"
         d="m 1156.33,3362.21 c 14.38,-17.94 26.22,-32.69 33.46,-39.8 4.91,-4.97 9.34,-8.18 15.54,-4.45 2.89,1.74 7.31,4.65 9.02,6.02 1.11,0.87 1.92,0.62 2.37,0.07 0.76,-0.92 0.27,-2.26 -1.77,-3.89 -10.28,-8.26 -22.51,-17.14 -23.45,-17.87 -0.93,-0.77 -12.25,-10.79 -17.89,-15.26 -2.05,-1.66 -3.26,-2.02 -4.19,-0.91 -0.4,0.57 -0.51,1.43 0.6,2.31 1.71,1.36 3.66,3.51 5.01,5.25 3.14,3.77 0.8,8.61 -2.83,14.64 -5.35,8.59 -17.2,23.35 -31.57,41.29 l -26.4,32.95 c -23.36,29.17 -27.57,34.4 -32.74,40.04 -5.46,6.06 -9.88,7.78 -14.76,5.4 -2.5,-1.08 -5.07,-2.86 -6.36,-3.89 -0.79,-0.61 -1.83,-0.84 -2.41,-0.07 -0.91,1.1 -0.28,2.22 1.77,3.9 6.17,4.9 18.43,13.82 19.33,14.55 0.94,0.76 12.29,10.77 17.9,15.24 2.06,1.68 3.27,2.07 4.18,0.92 0.6,-0.73 0.14,-1.71 -0.6,-2.34 -1.33,-1.04 -2.25,-2.13 -4.24,-4.27 -4.29,-4.99 -3.23,-9.38 1.63,-16.22 4.43,-6.28 8.64,-11.51 32,-40.69 l 26.4,-32.92 v 0" /><path
         id="path40"
         style="fill:#1a5dad;fill-opacity:1;fill-rule:nonzero;stroke:none"
         d="m 1259.58,3383.68 c 8.31,-12.05 12.3,-14.97 17.11,-13.52 3.3,1.08 6.69,3.07 8.05,3.94 0.76,0.47 1.39,0.47 1.76,-0.11 0.55,-0.91 -0.14,-1.77 -1.92,-2.97 -8.5,-5.52 -14.77,-8.94 -16.08,-9.85 -1.35,-0.82 -7.35,-5.39 -14.06,-9.74 -1.48,-0.97 -2.49,-1.39 -3.15,-0.35 -0.4,0.58 -0.13,1.17 0.59,1.68 1.19,0.76 3.82,2.63 5.59,4.85 3.01,3.46 0.93,8.26 -7.91,21.85 l -55.48,85.58 c -3.81,5.82 -4.41,7.78 -3.24,8.56 1.22,0.76 5.88,-0.89 8.35,-1.41 3.88,-1.08 41.73,-10.61 80.78,-20.26 25.03,-6.21 53.14,-13.82 61.13,-15.64 l -50.98,74.73 c -6.46,9.58 -9.64,12.19 -15.03,10.38 -3.1,-1.14 -6.62,-3.24 -7.8,-4.01 -1.05,-0.69 -1.5,-0.35 -1.89,0.25 -0.59,0.9 0.54,1.85 2.3,2.98 6.71,4.4 14.18,8.61 15.81,9.71 1.64,1.03 6.27,4.67 12.4,8.7 1.62,1.04 2.78,1.55 3.39,0.68 0.37,-0.62 0.06,-1.46 -0.98,-2.11 -0.74,-0.5 -1.79,-1.19 -3.32,-2.8 -4.21,-4.24 -2.69,-7.9 3.14,-16.85 l 56.63,-87.65 c 6.41,-9.82 6.61,-10.76 5.56,-11.46 -1.22,-0.75 -4.08,-0.27 -17.14,2.48 -2.6,0.4 -38.34,8.36 -65.25,15.07 -29.42,7.39 -58.55,15.19 -66.79,17.48 l 48.43,-70.19 v 0" /><path
         id="path42"
         style="fill:#1a5dad;fill-opacity:1;fill-rule:nonzero;stroke:none"
         d="m 1408.55,3449.84 c -2.78,-0.07 -3.28,0.48 -5.48,4.73 -4.15,7.9 -6.84,14.52 -7.99,17.14 -0.72,1.79 -0.83,2.75 -0.06,3.16 0.98,0.49 1.38,0.11 2.02,-1.14 0.72,-1.44 1.91,-3.62 3.56,-5.57 8.46,-10.47 21.16,-9.41 31.74,-3.91 15.16,7.94 16.86,22.7 11.56,32.82 -5.68,10.84 -13.53,14.74 -32.96,18.86 l -10.17,2.12 c -23.91,4.97 -32.8,12.79 -38.42,23.51 -8.8,16.9 -2.24,35.01 17.8,45.48 6.17,3.23 11.08,4.99 15.49,6.1 3.34,0.92 4.71,1.46 5.96,2.09 1.24,0.69 1.74,0.52 2.15,-0.25 0.42,-0.8 2.52,-6.34 8.12,-17.05 1.28,-2.55 1.56,-3.79 0.77,-4.23 -0.95,-0.49 -1.51,0.21 -2.33,1.41 -1.15,1.79 -4.32,5.55 -6.16,6.82 -1.86,1.21 -9.58,5.64 -24.1,-1.96 -10.88,-5.71 -15.86,-16.92 -9.83,-28.45 4.7,-8.99 11.91,-12.06 33.12,-16.44 l 6.19,-1.15 c 26.33,-4.95 35.84,-12.4 42.45,-25.03 3.38,-6.48 7.15,-19.78 0.28,-33.22 -4.27,-8.26 -11.82,-14.6 -20.34,-19.05 -7.41,-3.91 -15.24,-6.58 -23.37,-6.79 v 0" /><path
         id="path44"
         style="fill:#1a5dad;fill-opacity:1;fill-rule:nonzero;stroke:none"
         d="m 1533.47,3564.38 c 6.69,-15.75 12.16,-28.7 15.92,-35.21 2.49,-4.56 5.01,-7.75 10.2,-6.31 2.44,0.64 6.16,1.85 7.68,2.47 0.96,0.42 1.48,0.07 1.69,-0.4 0.38,-0.86 -0.24,-1.68 -2.06,-2.46 -9.01,-3.81 -19.52,-7.68 -20.36,-8.04 -0.79,-0.34 -10.94,-5.22 -15.85,-7.3 -1.81,-0.77 -2.75,-0.8 -3.16,0.17 -0.23,0.49 -0.11,1.15 0.91,1.56 1.46,0.63 3.24,1.78 4.61,2.75 3,2.03 2.27,6 0.95,11 -2.14,7.22 -7.62,20.21 -14.32,35.94 l -29.38,69.31 -24.1,-10.63 c -10.15,-4.49 -13.54,-7.27 -14.53,-12.37 -0.63,-3.5 -0.63,-4.87 -0.63,-6.22 0.09,-1.53 -0.28,-2.06 -0.93,-2.34 -0.49,-0.19 -1.02,0.15 -1.47,1.11 -0.65,1.64 -3.37,17.14 -3.61,18.6 -0.08,1.11 -0.32,3.53 0.34,3.79 1.15,0.5 3.47,-0.45 8.01,1.09 4.97,1.52 11.36,3.88 13.33,4.66 l 61.44,26.08 c 10.47,4.48 14.22,7.98 15.52,8.53 0.84,0.36 1.27,-0.61 1.68,-1.59 2.04,-4.95 6.38,-16.44 7.14,-18.24 0.64,-1.47 0.42,-2.34 -0.25,-2.63 -0.83,-0.34 -1.35,0 -2.51,2.23 l -0.91,1.76 c -2.74,4.62 -8.1,6.77 -23.99,0.44 l -20.78,-8.43 29.42,-69.32 v 0" /><path
         id="path46"
         style="fill:#1a5dad;fill-opacity:1;fill-rule:nonzero;stroke:none"
         d="m 1639.26,3604.16 c 5.52,-16.22 10.05,-29.52 13.27,-36.29 2.17,-4.71 4.47,-8.1 9.72,-7.05 2.51,0.49 6.31,1.4 7.86,1.9 0.97,0.38 1.51,-0.02 1.68,-0.54 0.25,-0.84 -0.41,-1.64 -2.25,-2.27 -9.27,-3.18 -20.06,-6.27 -20.88,-6.53 -0.86,-0.29 -11.31,-4.41 -16.39,-6.13 -1.8,-0.64 -2.78,-0.59 -3.13,0.4 -0.18,0.51 0,1.15 1.02,1.47 1.53,0.53 3.43,1.57 4.84,2.4 3.13,1.81 2.71,5.82 1.69,10.94 -1.52,7.38 -6.08,20.68 -11.56,36.88 l -10.1,29.66 c -8.94,26.3 -10.55,31 -12.74,36.24 -2.29,5.65 -4.96,7.92 -8.95,7.54 -2.03,-0.15 -4.25,-0.73 -5.43,-1.13 -0.67,-0.24 -1.48,-0.13 -1.72,0.58 -0.34,1.02 0.4,1.59 2.27,2.25 5.55,1.87 16.33,4.98 17.17,5.3 0.83,0.26 11.33,4.39 16.34,6.08 1.87,0.68 2.81,0.61 3.16,-0.41 0.25,-0.66 -0.32,-1.22 -1,-1.45 -1.15,-0.43 -2.13,-0.94 -4.02,-1.96 -4.28,-2.4 -4.68,-5.72 -2.98,-11.74 1.49,-5.46 3.09,-10.2 12.04,-36.49 l 10.09,-29.65 v 0" /><path
         id="path48"
         style="fill:#1a5dad;fill-opacity:1;fill-rule:nonzero;stroke:none"
         d="m 1748.93,3636.42 c 4.32,-16.54 7.87,-30.16 10.58,-37.15 1.84,-4.88 3.86,-8.38 9.19,-7.74 2.52,0.27 6.39,0.95 7.95,1.32 1.02,0.29 1.48,-0.17 1.64,-0.65 0.25,-0.88 -0.49,-1.61 -2.41,-2.1 -9.47,-2.5 -20.44,-4.77 -21.31,-5.01 -0.88,-0.21 -11.59,-3.59 -16.75,-4.9 -1.92,-0.5 -2.85,-0.4 -3.14,0.64 -0.1,0.53 0.1,1.13 1.14,1.41 1.53,0.42 3.53,1.3 4.99,2.01 3.24,1.59 3.14,5.66 2.54,10.8 -1.05,7.45 -4.58,21.07 -8.87,37.61 l -18.98,72.86 -25.38,-6.97 c -10.68,-2.98 -14.47,-5.23 -16.16,-10.07 -1.13,-3.44 -1.31,-4.77 -1.53,-6.13 -0.18,-1.5 -0.59,-1.97 -1.26,-2.16 -0.53,-0.15 -1.01,0.29 -1.29,1.33 -0.46,1.71 -0.84,17.44 -0.87,18.89 0.12,1.13 0.19,3.53 0.87,3.74 1.2,0.32 3.38,-0.98 8.11,-0.11 5.15,0.79 11.78,2.17 13.87,2.7 l 64.59,16.8 c 11.01,2.87 15.22,5.78 16.57,6.14 0.92,0.25 1.16,-0.79 1.43,-1.81 1.32,-5.16 3.9,-17.21 4.44,-19.09 0.38,-1.55 0.06,-2.4 -0.64,-2.57 -0.88,-0.22 -1.36,0.22 -2.17,2.57 l -0.66,1.85 c -2.01,5 -7.02,7.93 -23.64,3.97 l -21.79,-5.29 18.94,-72.89 v 0" /><path
         id="path50"
         style="fill:#1a5dad;fill-opacity:1;fill-rule:nonzero;stroke:none"
         d="m 1829.89,3687.54 c -4.38,27.41 -5.15,32.35 -6.4,37.89 -1.33,5.92 -3.16,8.5 -9.16,8.84 -1.46,0.11 -4.5,-0.16 -6.06,-0.45 -0.74,-0.1 -1.45,0.11 -1.6,0.83 -0.13,1.09 0.66,1.53 2.59,1.85 7.92,1.27 18.71,2.48 20.33,2.71 1.56,0.26 12.05,2.48 17.31,3.32 1.94,0.31 2.87,0.1 3.02,-0.96 0.14,-0.72 -0.53,-1.17 -1.22,-1.28 -1.2,-0.17 -2.25,-0.51 -4.32,-1.22 -4.63,-1.46 -5.54,-4.86 -4.91,-11.06 0.55,-5.69 1.36,-10.6 5.75,-38.02 l 3.89,-24.63 c 4.07,-25.33 11.47,-35.31 20.18,-41.3 9.88,-6.73 18.07,-7 28.06,-5.43 10.72,1.73 20.47,8.52 25.56,17.1 6.5,11.29 6.2,26.6 3.34,44.68 l -3.53,21.98 c -4.38,27.42 -5.17,32.38 -6.44,37.9 -1.28,5.93 -3.15,8.53 -9.15,8.82 -1.44,0.11 -4.49,-0.17 -6.07,-0.41 -0.69,-0.15 -1.44,0.12 -1.56,0.83 -0.17,1.04 0.63,1.53 2.58,1.83 7.89,1.28 17.65,2.28 18.75,2.46 1.2,0.21 9.39,2.04 14.65,2.89 1.96,0.3 2.89,0.09 3.02,-0.95 0.14,-0.69 -0.52,-1.18 -1.22,-1.3 -1.21,-0.16 -2.28,-0.33 -4.31,-1.21 -4.58,-1.64 -5.53,-4.87 -4.91,-11.05 0.57,-5.7 1.35,-10.64 5.75,-38.05 l 2.99,-18.8 c 3.03,-18.99 4.33,-40.44 -7.73,-55.17 -10.87,-13.26 -23.78,-17.13 -34.16,-18.75 -5.95,-0.98 -23.82,-3.12 -38.19,6.68 -9.93,6.86 -18.6,18.1 -22.7,43.76 l -4.13,25.67 v 0" /><path
         id="path52"
         style="fill:#1a5dad;fill-opacity:1;fill-rule:nonzero;stroke:none"
         d="m 2042.58,3681.89 c 1.06,-17.05 1.97,-31.09 3.33,-38.48 0.84,-5.14 2.16,-8.96 7.55,-9.36 2.51,-0.16 6.44,-0.26 8.05,-0.16 1.05,0.06 1.44,-0.5 1.45,-1.03 0.09,-0.85 -0.75,-1.45 -2.74,-1.55 -9.74,-0.62 -20.98,-0.85 -21.87,-0.89 -0.91,-0.02 -12.03,-1.3 -17.38,-1.62 -1.95,-0.14 -2.88,0.17 -2.95,1.21 0,0.56 0.31,1.13 1.36,1.15 1.59,0.15 3.72,0.64 5.28,1.08 3.51,0.94 4.15,4.88 4.54,10.11 0.41,7.48 -0.45,21.54 -1.55,38.57 l -4.79,75.15 -26.26,-2.01 c -11.04,-0.88 -15.2,-2.41 -17.79,-6.86 -1.75,-3.15 -2.2,-4.4 -2.66,-5.68 -0.45,-1.48 -0.97,-1.84 -1.67,-1.88 -0.51,-0.07 -0.91,0.48 -0.96,1.53 -0.16,1.78 2.46,17.28 2.71,18.75 0.26,1.06 0.83,3.44 1.55,3.46 1.21,0.07 3.14,-1.61 7.95,-1.62 5.19,-0.22 11.95,-0.15 14.11,0 l 66.61,4.26 c 11.35,0.71 16.06,2.8 17.48,2.88 0.88,0.06 0.94,-1.02 1.01,-2.06 0.34,-5.37 0.61,-17.62 0.73,-19.57 0.1,-1.64 -0.41,-2.37 -1.1,-2.41 -0.9,-0.07 -1.25,0.47 -1.61,2.92 l -0.32,1.96 c -1.05,5.29 -5.41,9.08 -22.46,8.35 l -22.4,-1.04 4.8,-75.16 v 0" /><path
         id="path54"
         style="fill:#1a5dad;fill-opacity:1;fill-rule:nonzero;stroke:none"
         d="m 2141.88,3716.05 c 0.54,27.77 0.58,32.74 0.36,38.47 -0.27,6.03 -1.63,8.91 -7.45,10.3 -1.46,0.34 -4.47,0.58 -6.06,0.63 -0.71,0 -1.42,0.36 -1.42,1.07 0.04,1.09 0.91,1.39 2.9,1.36 7.98,-0.14 19.24,-0.87 20.11,-0.87 1.2,-0.03 36.63,-0.66 40.75,-0.57 3.36,0.11 6.22,0.42 7.67,0.74 0.87,0.17 1.62,0.87 2.5,0.84 0.54,0 0.72,-0.72 0.67,-1.59 -0.03,-1.27 -0.94,-3.36 -1.55,-8.34 -0.21,-1.77 -0.75,-9.61 -1.12,-11.73 -0.2,-0.91 -0.57,-1.94 -1.29,-1.94 -1.06,0 -1.39,0.93 -1.39,2.33 0.07,1.25 -0.08,4.27 -0.92,6.43 -1.21,2.85 -2.94,5.06 -12.57,6.27 -2.99,0.43 -22.35,0.94 -24.35,0.98 -0.72,0.04 -1.06,-0.51 -1.06,-1.77 l -0.88,-49.12 c -0.06,-1.25 0.11,-1.78 1.01,-1.8 2.29,-0.04 24.21,-0.42 28.32,-0.15 4.24,0.29 6.73,0.61 8.39,2.34 1.24,1.4 2.01,2.26 2.7,2.26 0.53,0 0.88,-0.34 0.87,-1.42 0,-1.08 -0.96,-4.07 -1.62,-9.96 -0.41,-3.56 -0.87,-10.14 -0.91,-11.38 -0.01,-1.4 -0.01,-3.36 -1.32,-3.36 -0.88,0 -1.21,0.74 -1.21,1.64 0.06,1.79 0.1,3.57 -0.61,5.89 -0.65,2.52 -2.22,5.58 -9.15,6.39 -4.76,0.6 -22.34,1.31 -25.44,1.33 -0.86,0.05 -1.21,-0.51 -1.22,-1.21 l -0.32,-15.63 c -0.14,-6.09 -0.64,-26.7 -0.55,-30.46 0.32,-12.3 2.99,-14.66 20.39,-14.98 4.64,-0.08 12.46,-0.22 17.14,1.67 4.67,1.87 6.85,5.4 8.25,12.66 0.38,1.93 0.72,2.66 1.64,2.61 1.08,0 1.05,-1.42 1.05,-2.68 -0.09,-1.42 -1.71,-13.46 -2.65,-17.22 -1.34,-4.6 -2.75,-4.58 -9.72,-4.43 -26.86,0.48 -38.74,1.74 -43.91,1.85 -0.91,0.02 -12.13,-0.32 -17.48,-0.2 -1.97,0.03 -2.82,0.4 -2.78,1.46 0,0.51 0.34,1.07 1.42,1.05 1.59,-0.05 3.72,0.27 5.35,0.61 3.57,0.66 4.55,4.53 5.32,9.69 1.02,7.49 1.31,21.51 1.59,38.6 l 0.55,31.34 v 0" /><path
         id="path56"
         style="fill:#1a5dad;fill-opacity:1;fill-rule:nonzero;stroke:none"
         d="m 2315.85,3691.76 c -5.06,-31.66 9.02,-72.3 57.22,-79.95 42.34,-6.77 75.35,21.35 81.57,60.73 6.58,40.94 -19.02,70.62 -58.57,76.92 -48.52,7.72 -75.69,-29.25 -80.22,-57.7 z m 17.49,2.26 c 6.13,38.48 31.21,54.32 60.53,49.65 27.77,-4.4 49.88,-31.2 43.11,-73.37 -8.11,-51.16 -42.27,-55.12 -58.12,-52.57 -31.64,5.04 -52.02,35.3 -45.52,76.29 v 0" /><path
         id="path58"
         style="fill:#1a5dad;fill-opacity:1;fill-rule:nonzero;stroke:none"
         d="m 2509.12,3671.88 c 6.84,26.91 8.07,31.75 9.13,37.37 1.16,5.94 0.49,9.04 -4.9,11.72 -1.3,0.67 -4.2,1.6 -5.75,1.99 -0.69,0.17 -1.29,0.74 -1.14,1.38 0.28,1.04 1.28,1.16 3.17,0.7 7.71,-1.99 18.5,-5.29 19.32,-5.49 3.45,-0.88 38.52,-9.82 42.51,-10.63 3.32,-0.66 6.05,-1.35 7.77,-1.26 1.12,0.08 2,0.6 2.64,0.43 0.71,-0.17 0.86,-0.97 0.68,-1.82 -0.31,-1.21 -1.73,-3.05 -3.45,-7.75 -0.64,-1.68 -2.94,-9.21 -3.78,-11.17 -0.36,-0.81 -1,-1.79 -1.85,-1.55 -0.87,0.2 -1.01,1.18 -0.72,2.36 0.35,1.39 0.61,4.47 0.15,6.99 -0.45,2.49 -3.66,6.61 -10.34,8.48 l -26.43,7.28 c -1.02,0.29 -1.69,-0.11 -2.03,-1.49 l -12.12,-47.61 c -0.28,-1.01 -0.25,-1.57 0.8,-1.88 l 22.11,-5.44 c 2.97,-0.72 5.38,-1.36 7.83,-1.81 4.23,-0.7 6.59,-0.76 8.71,1.09 0.93,0.68 1.69,1.43 2.34,1.25 0.7,-0.17 0.72,-0.74 0.52,-1.61 -0.23,-1.04 -1.86,-3.73 -3.82,-9.3 -1.21,-3.36 -3.36,-10.16 -3.67,-11.4 -0.37,-1.55 -0.79,-3.25 -2.04,-2.98 -0.85,0.24 -1.01,1.02 -0.79,1.88 0.28,1.78 0.72,4.22 0.53,6.49 -0.25,2.65 -2.2,6.4 -7.33,8.49 -4.23,1.59 -23.03,6.41 -25.94,7.13 -0.89,0.25 -1.36,-0.02 -1.64,-1.22 l -3.75,-14.68 c -4.2,-16.55 -7.69,-30.17 -8.65,-37.66 -0.76,-5.11 -0.69,-9.18 4.32,-11.18 2.32,-0.97 5.99,-2.29 7.58,-2.67 1.01,-0.24 1.25,-0.88 1.12,-1.39 -0.25,-0.87 -1.19,-1.16 -3.12,-0.67 -9.49,2.4 -20.25,5.73 -21.06,5.93 -0.9,0.2 -11.91,2.47 -17.06,3.75 -1.89,0.51 -2.68,1.05 -2.44,2.1 0.19,0.51 0.64,0.94 1.69,0.68 1.52,-0.36 3.67,-0.55 5.31,-0.6 3.66,-0.19 5.5,3.37 7.4,8.2 2.75,7.05 6.23,20.66 10.4,37.23 l 7.79,30.34 v 0" /><path
         id="path60"
         style="fill:#1a5dad;fill-opacity:1;fill-rule:nonzero;stroke:none"
         d="m 2746.6,3579.52 c -8.77,-21.25 -15.98,-38.77 -18.75,-48.54 -1.96,-6.69 -2.64,-12.13 3.67,-15.75 2.91,-1.71 7.59,-4.17 9.62,-4.97 1.29,-0.56 1.45,-1.4 1.19,-2.09 -0.46,-1.09 -1.83,-1.29 -4.31,-0.28 -12.13,5 -25.82,11.41 -26.93,11.88 -1.13,0.49 -15.35,5.52 -21.99,8.28 -2.45,1 -3.36,1.91 -2.8,3.25 0.26,0.65 0.99,1.13 2.3,0.58 2.01,-0.83 4.86,-1.47 7.03,-1.85 4.78,-0.92 7.88,3.48 11.43,9.55 4.94,8.85 12.16,26.36 20.95,47.64 l 38.62,93.7 -32.97,13.06 c -13.86,5.45 -19.75,6.09 -25.52,2.23 -4,-2.73 -5.32,-4.02 -6.57,-5.32 -1.43,-1.5 -2.25,-1.65 -3.17,-1.29 -0.68,0.28 -0.84,1.11 -0.27,2.44 0.9,2.23 13.19,19.42 14.37,21.03 0.99,1.14 3.09,3.66 3.95,3.31 1.54,-0.63 2.85,-3.77 8.65,-6.65 6.15,-3.35 14.39,-7.25 17.06,-8.36 l 83.06,-34.23 c 14.23,-5.85 21.09,-6.1 22.86,-6.84 1.11,-0.45 0.53,-1.8 0.02,-3.11 -2.75,-6.65 -9.7,-21.67 -10.75,-24.1 -0.81,-2 -1.81,-2.63 -2.72,-2.23 -1.13,0.45 -1.29,1.27 -0.2,4.48 l 0.76,2.54 c 1.86,7.01 -1.14,14.21 -22.22,23.41 l -27.71,11.96 -38.66,-93.73 v 0" /><path
         id="path62"
         style="fill:#1a5dad;fill-opacity:1;fill-rule:nonzero;stroke:none"
         d="m 2864.27,3539.71 c 13.1,24.52 15.46,28.91 17.78,34.11 2.59,5.49 2.63,8.7 -1.95,12.52 -1.05,1.02 -3.67,2.61 -5.1,3.36 -0.61,0.33 -1.05,0.96 -0.73,1.59 0.51,0.94 1.44,0.88 3.15,-0.07 7.1,-3.79 16.77,-9.55 17.49,-9.97 1.14,-0.59 32.38,-17.27 36.09,-19.03 3.06,-1.43 5.75,-2.48 7.16,-2.8 0.87,-0.28 1.85,0 2.61,-0.41 0.47,-0.25 0.28,-0.97 -0.13,-1.74 -0.6,-1.11 -2.38,-2.59 -5.17,-6.72 -1.01,-1.51 -4.99,-8.22 -6.31,-9.92 -0.62,-0.71 -1.41,-1.5 -2.03,-1.17 -0.96,0.48 -0.84,1.46 -0.18,2.72 0.57,1.09 1.88,3.88 2.06,6.13 0.28,3.14 -0.31,5.86 -8.31,11.33 -2.5,1.73 -19.52,11.04 -21.23,11.93 -0.62,0.35 -1.19,0.06 -1.79,-1.03 l -23.14,-43.36 c -0.59,-1.09 -0.67,-1.66 0.11,-2.08 2.04,-1.1 21.36,-11.4 25.12,-13.04 3.95,-1.7 6.27,-2.55 8.59,-1.7 1.72,0.66 2.76,1.12 3.45,0.75 0.45,-0.24 0.57,-0.73 0.08,-1.66 -0.52,-0.94 -2.72,-3.2 -5.94,-8.1 -2,-3 -5.39,-8.64 -6.02,-9.74 -0.63,-1.25 -1.62,-2.98 -2.66,-2.4 -0.81,0.44 -0.76,1.19 -0.39,2 0.89,1.59 1.73,3.13 2.15,5.54 0.56,2.51 0.58,5.96 -5.21,9.86 -4.01,2.71 -19.36,11.34 -22.03,12.77 -0.8,0.42 -1.37,0.11 -1.73,-0.53 l -7.35,-13.82 c -2.83,-5.33 -12.73,-23.48 -14.32,-26.86 -5.33,-11.06 -4.08,-14.37 11.32,-22.6 4.09,-2.19 10.98,-5.86 15.99,-6.34 4.99,-0.44 8.59,1.73 13.12,7.58 1.22,1.52 1.86,2.01 2.68,1.6 0.95,-0.53 0.23,-1.78 -0.32,-2.87 -0.68,-1.27 -7.64,-11.27 -10.21,-14.14 -3.28,-3.5 -4.51,-2.84 -10.62,0.42 -23.73,12.69 -33.76,19.23 -38.3,21.67 -0.75,0.41 -10.93,5.22 -15.63,7.77 -1.72,0.89 -2.35,1.64 -1.87,2.57 0.27,0.47 0.83,0.77 1.78,0.28 1.4,-0.78 3.47,-1.47 5.1,-1.92 3.44,-1.05 6.05,2.02 9.15,6.25 4.26,6.16 10.86,18.56 18.94,33.62 l 14.75,27.65 v 0" /><path
         id="path64"
         style="fill:#1a5dad;fill-opacity:1;fill-rule:nonzero;stroke:none"
         d="m 2937.73,3422.43 c -5.92,22.39 1.6,41.72 10.86,55.89 6.57,9.97 21.39,25.14 43.34,29.7 14.76,3.09 32.9,1.22 55.87,-13.77 5.9,-3.92 13.95,-9.82 20.38,-15.98 4.98,-4.67 9.15,-8.73 13.72,-12.13 1.58,-1.23 1.46,-2.03 0.87,-2.93 -0.76,-1.19 -2.42,-2.69 -6.19,-7.84 -3.53,-4.73 -8.87,-12.91 -10.48,-15.05 -1.63,-2.15 -2.5,-2.84 -3.4,-2.26 -1.06,0.71 -0.5,1.83 0.85,3.91 3.87,5.82 5.41,13.48 3.73,19.28 -2.32,7.88 -11.17,19.4 -24.26,28.02 -19.82,12.98 -32.83,13.18 -41.42,11.54 -17.64,-3.31 -28.89,-14.89 -38.81,-30.08 -18.65,-28.45 -13.79,-68.85 18.05,-89.7 11.17,-7.37 20.85,-11.77 30.8,-9.56 5.26,1.22 11.53,6.51 13.71,8.92 1.37,1.43 2.05,1.86 2.91,1.22 0.8,-0.45 0.41,-1.7 -0.41,-2.89 -0.63,-1.04 -10.93,-12.85 -15.73,-16.92 -2.75,-2.24 -3.25,-2.34 -6.71,-1.78 -7.49,1.55 -19.51,7.92 -29.07,14.15 -22.3,14.61 -33.73,29.98 -38.61,48.26 v 0" /><path
         id="path66"
         style="fill:#1a5dad;fill-opacity:1;fill-rule:nonzero;stroke:none"
         d="m 3168.24,3295.04 c -10.82,-13.19 -19.77,-24.02 -23.86,-30.35 -2.87,-4.36 -4.53,-8.05 -0.84,-11.99 1.67,-1.85 4.5,-4.62 5.72,-5.64 0.83,-0.66 0.78,-1.33 0.41,-1.75 -0.54,-0.66 -1.58,-0.52 -3.05,0.73 -7.56,6.24 -15.93,13.76 -16.57,14.32 -0.72,0.6 -9.72,7.28 -13.86,10.69 -1.48,1.25 -1.93,2.1 -1.26,2.9 0.34,0.41 0.95,0.59 1.77,-0.08 1.22,-1.05 3.12,-2.13 4.56,-2.82 3.24,-1.75 6.41,0.69 10.2,4.25 5.44,5.22 14.4,16.06 25.25,29.26 l 11.87,14.45 c 0.51,0.54 0.3,1.15 -0.12,1.49 l -58.25,47.99 c -0.44,0.34 -0.91,0.51 -1.51,-0.14 l -11.9,-14.45 c -10.85,-13.2 -19.81,-24.04 -23.86,-30.36 -2.87,-4.35 -4.54,-8.04 -0.84,-12.03 1.67,-1.84 4.48,-4.58 5.69,-5.6 0.79,-0.7 0.79,-1.33 0.39,-1.74 -0.52,-0.69 -1.57,-0.51 -3.08,0.7 -7.52,6.22 -15.87,13.78 -16.55,14.34 -0.68,0.56 -9.68,7.28 -13.8,10.7 -1.52,1.23 -2.01,2.09 -1.32,2.89 0.37,0.41 0.97,0.58 1.78,-0.07 1.26,-1.02 3.13,-2.14 4.58,-2.87 3.23,-1.7 6.36,0.73 10.22,4.28 5.41,5.22 14.37,16.06 25.25,29.26 l 19.9,24.21 c 17.67,21.41 20.85,25.27 24.19,29.86 3.54,4.91 4.26,8.03 0.54,12.77 -0.82,1.14 -3.11,3.2 -4.33,4.24 -0.57,0.46 -0.9,1.15 -0.44,1.71 0.66,0.83 1.57,0.56 3.11,-0.71 6.17,-5.07 14.53,-12.64 15.17,-13.19 0.72,-0.57 9.68,-7.28 13.81,-10.7 1.54,-1.25 1.98,-2.09 1.32,-2.91 -0.46,-0.53 -1.26,-0.36 -1.78,0.1 -0.99,0.79 -1.9,1.33 -3.76,2.41 -4.27,2.35 -7.32,0.94 -11.54,-3.66 -3.91,-4.19 -7.08,-7.98 -24.7,-29.44 l -2.41,-2.89 c -0.54,-0.69 -0.26,-1.16 0.18,-1.48 l 58.22,-47.99 c 0.45,-0.34 0.96,-0.56 1.54,0.14 l 2.35,2.9 c 17.68,21.41 20.82,25.28 24.19,29.89 3.56,4.91 4.27,8.01 0.54,12.73 -0.91,1.14 -3.09,3.18 -4.32,4.24 -0.54,0.45 -0.91,1.17 -0.45,1.74 0.68,0.79 1.58,0.52 3.09,-0.74 6.2,-5.08 14.54,-12.64 15.19,-13.2 0.72,-0.55 9.72,-7.27 13.84,-10.67 1.51,-1.25 1.95,-2.1 1.26,-2.91 -0.46,-0.54 -1.18,-0.37 -1.82,0.08 -0.9,0.84 -1.82,1.32 -3.72,2.44 -4.26,2.36 -7.31,0.92 -11.51,-3.67 -3.94,-4.16 -7.07,-8.05 -24.73,-29.45 l -19.95,-24.21 v 0" /><path
         id="path68"
         style="fill:#1a5dad;fill-opacity:1;fill-rule:nonzero;stroke:none"
         d="m 3208.41,3220.08 c -10.28,-10.39 -12.4,-14.84 -10.14,-19.31 1.72,-3.06 4.32,-6.03 5.45,-7.16 0.6,-0.64 0.72,-1.25 0.21,-1.74 -0.75,-0.77 -1.79,-0.26 -3.26,1.31 -7.01,7.33 -11.53,12.81 -12.63,13.96 -1.13,1.17 -6.76,6.17 -12.25,11.96 -1.28,1.29 -1.84,2.2 -0.95,3.05 0.49,0.5 1.14,0.36 1.77,-0.28 0.95,-1.04 3.31,-3.23 5.8,-4.52 3.97,-2.37 8.32,0.59 20.02,11.81 l 73.64,70.52 c 5.07,4.79 6.84,5.74 7.87,4.72 0.94,-1.04 0.18,-5.9 0.15,-8.45 -0.34,-4.01 -2.61,-43.01 -4.83,-83.1 -1.38,-25.8 -3.6,-54.84 -3.91,-63.01 l 63.89,64.03 c 8.22,8.17 10.19,11.77 7.37,16.74 -1.72,2.84 -4.39,5.86 -5.4,6.9 -0.86,0.92 -0.62,1.4 -0.09,1.89 0.76,0.75 1.91,-0.15 3.36,-1.71 5.6,-5.78 11.06,-12.3 12.47,-13.71 1.38,-1.4 5.82,-5.27 10.82,-10.52 1.37,-1.44 2.15,-2.46 1.33,-3.17 -0.47,-0.52 -1.4,-0.39 -2.24,0.52 -0.63,0.62 -1.54,1.56 -3.35,2.7 -4.99,3.39 -8.26,1.17 -15.96,-6.18 l -75.53,-72.03 c -8.48,-8.14 -9.33,-8.5 -10.2,-7.59 -0.98,1.05 -1.05,3.9 -0.82,17.27 -0.07,2.65 1.09,39.26 2.66,66.94 1.75,30.3 3.98,60.35 4.66,68.89 l -59.91,-60.73 v 0" /><path
         id="path70"
         style="fill:#1a5dad;fill-opacity:1;fill-rule:nonzero;stroke:none"
         d="m 3348.08,3133.68 c -25.47,-19.41 -43.39,-58.55 -13.81,-97.35 25.94,-34.12 69.23,-36.55 100.93,-12.42 33,25.14 35.04,64.24 10.75,96.11 -29.72,39.07 -74.93,31.11 -97.87,13.66 z m 14.23,-10.46 c 31,23.6 60.07,17.79 78.07,-5.86 17.01,-22.42 14.5,-56.96 -19.5,-82.87 -41.2,-31.37 -68.63,-10.65 -78.31,2.13 -19.44,25.49 -13.25,61.49 19.74,86.6 v 0" /><path
         id="path72"
         style="fill:#1a5dad;fill-opacity:1;fill-rule:nonzero;stroke:none"
         d="m 3455.2,2956.44 c -22.15,-13.88 -31.38,-20.54 -32.44,-24.98 -0.88,-3.91 0.49,-8.5 7.87,-20.27 5.01,-7.98 9.33,-14.53 15.95,-15.39 3.69,-0.46 8.42,0.36 11.54,1.72 1.31,0.64 2.25,0.79 2.78,-0.13 0.53,-0.73 0,-1.25 -1.69,-2.29 -1.6,-1.05 -11.34,-5.67 -16.46,-7.23 -4.14,-1.09 -5.02,-0.99 -10.02,6.97 -13.67,21.71 -18.96,32.22 -24.45,41 -0.85,1.36 -6.91,9.99 -9.71,14.48 -1.09,1.68 -1.17,2.61 -0.31,3.17 0.46,0.32 1.09,0.29 1.66,-0.64 0.88,-1.33 2.25,-2.94 3.42,-4.13 2.5,-2.65 6.3,-1.31 11.04,0.81 6.81,3.23 18.67,10.68 33.21,19.78 l 26.52,16.64 c 23.55,14.72 27.8,17.4 32.38,20.73 4.99,3.51 6.64,6.22 4.6,11.87 -0.46,1.38 -1.96,4.07 -2.75,5.42 -0.44,0.61 -0.5,1.4 0.12,1.76 0.92,0.53 1.67,0 2.69,-1.68 4.3,-6.75 9.79,-16.54 10.27,-17.28 0.46,-0.81 7.79,-11.52 10.65,-16.04 1,-1.65 1.18,-2.57 0.31,-3.14 -0.63,-0.43 -1.26,0 -1.67,0.63 -0.66,1.03 -2.12,3.05 -3.59,4.71 -3.48,3.88 -6.77,3.46 -12.27,0.48 -5.04,-2.72 -9.22,-5.37 -32.74,-20.14 l -26.91,-16.83 v 0" /><path
         id="path74"
         style="fill:#1a5dad;fill-opacity:1;fill-rule:nonzero;stroke:none"
         d="m 3511.72,2896.42 c -28.59,-14.45 -53.3,-49.66 -31.3,-93.19 19.37,-38.31 61.46,-48.57 97.02,-30.58 37.03,18.71 46.1,56.81 28.04,92.57 -22.18,43.83 -68.05,44.22 -93.76,31.2 z m 12.08,-12.85 c 34.77,17.58 62.28,6.57 75.71,-19.96 12.71,-25.14 3.92,-58.68 -34.24,-77.94 -46.19,-23.36 -69.4,2 -76.62,16.31 -14.44,28.59 -1.86,62.88 35.15,81.59 v 0" /><path
         id="path76"
         style="fill:#1a5dad;fill-opacity:1;fill-rule:nonzero;stroke:none"
         d="m 3606.02,2630.23 c 13.51,5.04 15.03,6.57 14.36,13.93 -0.13,1.45 -1.03,4.34 -1.6,5.84 -0.23,0.71 -0.19,1.47 0.54,1.72 0.95,0.37 1.59,-0.31 2.3,-2.16 2.79,-7.53 6.24,-18.22 6.54,-19.07 0.32,-0.81 4.69,-11.13 6.61,-16.16 0.68,-1.8 0.64,-2.77 -0.37,-3.16 -0.68,-0.24 -1.22,0.33 -1.47,0.97 -0.46,1.19 -1,2.13 -2.09,4.03 -2.52,4.17 -5.82,4.43 -11.76,2.6 -5.48,-1.68 -10.47,-3.51 -17.49,-6.16 l -18.72,-6.97 c -7.47,-2.78 -7.9,-2.76 -9.78,-1.17 -9.68,8.52 -17.08,22.87 -20.72,32.55 -4.72,12.66 -11.9,36.98 -2.6,61.53 5.05,13.44 19.24,29.8 40.07,37.58 26.71,9.95 50.42,3.96 65.28,-7.39 14.99,-11.51 22.26,-27.57 27.11,-40.44 3.91,-10.52 6.14,-23.15 6.61,-26.57 0.53,-3.82 2,-9.88 3.39,-14.13 0.52,-1.71 -0.04,-2.29 -0.69,-2.52 -2.31,-0.89 -7.47,-1.49 -24.14,-7.71 -2.65,-1.02 -3.6,-0.99 -4.04,0.2 -0.34,0.84 0.6,1.35 2.02,2.1 2.28,1.05 6.66,3.62 9.68,7.6 4.81,6.57 6.94,22.72 -1.08,44.25 -3.93,10.51 -9.6,22.64 -24.31,31.57 -11.31,6.8 -29.03,7.99 -48.54,0.71 -23.54,-8.78 -36.1,-26.96 -39.58,-34.93 -7.96,-17.97 -7.29,-35.03 -1.57,-50.35 2.26,-6.03 6.52,-14.29 10.61,-17.7 1.94,-1.74 4.27,-2.23 7.08,-1.18 l 28.35,10.59 v 0" /><path
         id="path78"
         style="fill:#1a5dad;fill-opacity:1;fill-rule:nonzero;stroke:none"
         d="m 3636.09,2533.35 c 9.31,2.46 12.62,5.21 16.98,8.77 2.46,1.96 34.11,35.09 41.47,43.53 5.18,5.98 8.35,11.46 9.59,15.08 1.04,3.02 1.17,6.57 0.73,8.16 -0.19,0.82 -0.1,1.8 0.76,2.04 0.68,0.17 1.42,-0.39 1.8,-1.91 0.88,-3.32 3.83,-16.29 4.05,-17.18 0.34,-1.21 2.6,-7.62 4.38,-14.31 0.52,-1.87 0.08,-2.36 -0.6,-2.54 -0.65,-0.21 -1.16,0.77 -2.22,2.13 -1.04,1.21 -2.35,1.82 -3.68,1.42 -2.11,-0.55 -3.93,-1.94 -6.13,-4.03 -4.23,-4.08 -41.73,-41.76 -45.88,-46.18 8.09,-1.32 51.6,-13.09 58.18,-15.01 4.23,-1.29 7.36,-1.18 9.59,-0.58 2.35,0.65 4.06,1.83 4.06,4.03 0.11,1.71 0.21,2.83 1.02,3.03 0.68,0.21 1.32,-0.73 1.77,-2.47 1.19,-4.47 2.19,-10.12 2.55,-11.47 0.24,-1.05 4.09,-13.3 4.96,-16.53 0.32,-1.21 0.23,-2.33 -0.42,-2.55 -0.89,-0.2 -1.61,0.49 -1.99,1.89 -0.5,1.88 -2.05,4.97 -4.5,7.28 -2.99,2.85 -5.59,4.21 -11.25,6.75 -8.4,3.83 -55.25,17.1 -63.43,18.22 -6.89,0.89 -12.23,-0.49 -17.89,-2.06 l -14.82,-3.93 c -2.76,-0.74 -9.97,-2.65 -17.07,-5.12 -4.9,-1.69 -8.26,-4.21 -7.53,-9.59 0.27,-2.49 0.94,-6.36 1.4,-7.93 0.22,-1.01 -0.22,-1.5 -0.68,-1.59 -0.86,-0.29 -1.63,0.43 -2.13,2.36 -2.55,9.43 -4.9,20.39 -5.14,21.26 -0.22,0.88 -3.63,11.58 -5.05,16.72 -0.5,1.89 -0.35,2.82 0.64,3.15 0.5,0.1 1.14,-0.12 1.43,-1.13 0.42,-1.51 1.28,-3.54 2.04,-4.97 1.6,-3.25 5.86,-3.79 10.92,-2.79 7.34,1.41 14.55,3.35 17.32,4.08 l 14.77,3.97 v 0" /><path
         id="path80"
         style="fill:#1a5dad;fill-opacity:1;fill-rule:nonzero;stroke:none"
         d="m 549.703,2164.31 c -22.969,0.7 -41.937,1.3 -52,0.43 -6.98,-0.49 -12.273,-1.77 -13.465,-8.92 -0.59,-3.34 -1.215,-8.61 -1.293,-10.73 -0.07,-1.46 -0.793,-1.91 -1.507,-1.91 -1.211,0.03 -1.895,1.26 -1.797,3.89 0.414,13.17 1.625,28.24 1.625,29.44 0.043,1.21 -0.192,16.33 0.043,23.51 0.109,2.63 0.593,3.84 2.054,3.79 0.703,-0.04 1.399,-0.55 1.36,-2.01 -0.075,-2.12 0.304,-5.02 0.738,-7.18 0.789,-4.85 6.047,-6.2 12.945,-7.36 10.039,-1.52 28.922,-2.13 51.969,-2.85 l 42.125,-1.32 c 37.367,-1.19 44.098,-1.4 51.746,-1.15 8.152,0.21 12.297,2.47 13.692,7.69 0.792,2.62 1.101,5.74 1.195,7.41 0.027,0.96 0.5,1.88 1.504,1.88 1.398,-0.05 1.851,-1.28 1.765,-3.88 -0.257,-7.91 -1.425,-22.98 -1.48,-24.17 -0.031,-1.21 0.223,-16.34 -0.031,-23.52 -0.067,-2.64 -0.578,-3.8 -2.024,-3.76 -0.969,0 -1.426,1.03 -1.383,1.96 0.055,1.66 -0.136,3.12 -0.515,6.01 -1,6.52 -5.012,8.55 -13.379,9.26 -7.668,0.74 -14.344,0.96 -51.711,2.15 l -42.176,1.34 v 0" /><path
         id="path82"
         style="fill:#1a5dad;fill-opacity:1;fill-rule:nonzero;stroke:none"
         d="m 507.984,2062.57 c -14.527,-1.34 -19.043,-3.39 -20.156,-8.26 -0.672,-3.44 -0.555,-7.35 -0.465,-8.99 0.078,-0.91 -0.285,-1.41 -0.957,-1.45 -1.09,-0.14 -1.519,0.95 -1.644,3.09 -0.676,10.11 -0.625,17.22 -0.696,18.9 -0.097,1.54 -1.14,8.94 -1.679,16.98 -0.141,1.77 -0.028,2.84 1.218,2.96 0.743,0 1.118,-0.51 1.157,-1.37 0.101,-1.4 0.496,-4.63 1.566,-7.24 1.531,-4.34 6.754,-4.89 22.914,-3.79 l 101.789,6.54 c 6.93,0.45 8.903,0.04 9.012,-1.37 0.078,-1.4 -3.617,-4.68 -5.285,-6.58 -2.863,-2.86 -29.676,-31.25 -57.184,-60.56 -17.648,-18.84 -38.062,-39.62 -43.535,-45.73 l 90.094,7.99 c 11.531,0.94 15.371,2.46 16.437,8.05 0.489,3.22 0.41,7.31 0.321,8.77 -0.11,1.23 0.402,1.45 1.14,1.47 1.051,0.12 1.332,-1.32 1.453,-3.44 0.571,-8.03 0.571,-16.57 0.711,-18.52 0.141,-1.94 1.032,-7.77 1.532,-15.06 0.136,-1.98 0.043,-3.25 -1.016,-3.29 -0.711,-0.05 -1.281,0.63 -1.395,1.85 -0.062,0.91 -0.125,2.14 -0.8,4.25 -1.625,5.79 -5.59,6.2 -16.266,5.53 l -104.117,-6.54 c -11.699,-0.78 -12.602,-0.51 -12.703,0.72 -0.071,1.48 1.738,3.72 10.511,13.77 1.625,2.04 26.055,29.37 45.059,49.55 20.859,22.05 41.898,43.64 47.93,49.74 l -84.946,-7.97 v 0" /><path
         id="path84"
         style="fill:#1a5dad;fill-opacity:1;fill-rule:nonzero;stroke:none"
         d="m 501.852,1890.08 c 0.843,2.63 1.503,2.96 6.234,3.72 8.824,1.4 15.953,1.86 18.769,2.14 1.985,0.13 2.887,-0.07 3.043,-0.96 0.168,-1.09 -0.328,-1.31 -1.71,-1.56 -1.606,-0.26 -4.079,-0.62 -6.407,-1.58 -12.617,-4.71 -15.676,-17.12 -13.773,-28.88 2.738,-16.86 16.215,-23.17 27.457,-21.35 12.113,1.95 18.312,8.17 28.34,25.28 l 5.226,8.97 c 12.324,21.12 22.535,27.07 34.481,28.98 18.801,3.04 33.922,-8.95 37.508,-31.26 1.058,-6.84 1.214,-12.05 0.867,-16.61 -0.172,-3.46 -0.149,-4.91 0.101,-6.32 0.246,-1.41 -0.078,-1.84 -0.949,-1.95 -0.851,-0.14 -6.785,-0.36 -18.726,-2.28 -2.809,-0.45 -4.106,-0.32 -4.239,0.55 -0.183,1.05 0.688,1.42 2.047,1.78 2.082,0.54 6.652,2.3 8.426,3.67 1.742,1.41 8.387,7.31 5.75,23.53 -1.914,12.12 -11.043,20.35 -23.867,18.31 -9.992,-1.6 -15.164,-7.47 -26.035,-26.17 l -3.118,-5.54 c -12.984,-23.44 -23.07,-30.11 -37.152,-32.36 -7.207,-1.16 -21.016,-0.49 -31.574,10.24 -6.473,6.68 -10.102,15.86 -11.668,25.35 -1.336,8.26 -1.403,16.53 0.969,24.3 v 0" /><path
         id="path86"
         style="fill:#1a5dad;fill-opacity:1;fill-rule:nonzero;stroke:none"
         d="m 582.402,1735.88 c -16.609,-4.05 -30.269,-7.37 -37.32,-10.05 -4.863,-1.67 -8.441,-3.67 -7.852,-9.04 0.254,-2.48 0.844,-6.4 1.192,-7.94 0.277,-1.07 -0.176,-1.53 -0.652,-1.64 -0.883,-0.2 -1.602,0.52 -2.102,2.41 -2.332,9.52 -4.453,20.55 -4.66,21.44 -0.227,0.86 -3.414,11.6 -4.664,16.8 -0.489,1.91 -0.348,2.86 0.73,3.09 0.52,0.09 1.114,-0.06 1.348,-1.12 0.394,-1.55 1.211,-3.55 1.988,-5.01 1.5,-3.31 5.547,-3.23 10.695,-2.68 7.485,0.87 21.165,4.23 37.774,8.32 l 73.141,17.85 -6.629,25.52 c -2.77,10.65 -5.008,14.53 -9.809,16.27 -3.418,1.17 -4.781,1.4 -6.094,1.63 -1.504,0.13 -1.992,0.63 -2.164,1.27 -0.097,0.54 0.313,1.01 1.352,1.28 1.762,0.4 17.469,0.58 18.957,0.58 1.082,-0.1 3.519,-0.22 3.683,-0.91 0.286,-1.25 -1.003,-3.36 -0.238,-8.13 0.695,-5.13 1.988,-11.79 2.496,-13.9 l 15.813,-64.81 c 2.718,-11.09 5.586,-15.31 5.926,-16.72 0.214,-0.84 -0.825,-1.09 -1.844,-1.36 -5.184,-1.3 -17.27,-3.65 -19.149,-4.14 -1.566,-0.38 -2.41,0 -2.547,0.68 -0.21,0.84 0.207,1.34 2.59,2.05 l 1.867,0.69 c 5.004,1.96 8,6.89 4.317,23.56 l -4.973,21.9 -73.172,-17.89 v 0" /><path
         id="path88"
         style="fill:#1a5dad;fill-opacity:1;fill-rule:nonzero;stroke:none"
         d="m 614.031,1626.23 c -16.238,-5.27 -29.636,-9.58 -36.496,-12.72 -4.738,-2.1 -8.121,-4.31 -7.18,-9.61 0.422,-2.53 1.293,-6.28 1.786,-7.84 0.339,-1.03 -0.063,-1.54 -0.571,-1.72 -0.871,-0.27 -1.632,0.45 -2.218,2.32 -2.997,9.29 -5.969,20.16 -6.204,20.96 -0.316,0.86 -4.246,11.37 -5.886,16.47 -0.621,1.86 -0.551,2.83 0.492,3.13 0.473,0.18 1.113,0 1.43,-1.05 0.472,-1.49 1.484,-3.45 2.332,-4.8 1.769,-3.19 5.781,-2.83 10.894,-1.97 7.414,1.51 20.778,5.77 37.043,11.05 l 29.809,9.58 c 26.441,8.53 31.168,10.09 36.461,12.21 5.687,2.14 8.027,4.8 7.668,8.81 -0.094,2 -0.618,4.23 -1.051,5.45 -0.192,0.69 -0.067,1.48 0.605,1.68 1.047,0.3 1.633,-0.4 2.211,-2.26 1.832,-5.59 4.75,-16.45 5.035,-17.26 0.258,-0.89 4.239,-11.36 5.883,-16.45 0.586,-1.9 0.52,-2.86 -0.492,-3.17 -0.699,-0.18 -1.246,0.36 -1.449,1.04 -0.403,1.18 -0.926,2.13 -1.899,4.09 -2.328,4.27 -5.648,4.68 -11.675,3.13 -5.52,-1.41 -10.25,-2.95 -36.688,-11.44 l -29.84,-9.63 v 0" /><path
         id="path90"
         style="fill:#1a5dad;fill-opacity:1;fill-rule:nonzero;stroke:none"
         d="m 653.965,1517.9 c -15.856,-6.39 -28.875,-11.68 -35.488,-15.35 -4.551,-2.42 -7.809,-4.87 -6.465,-10.09 0.621,-2.42 1.718,-6.2 2.359,-7.71 0.387,-0.97 0.043,-1.47 -0.445,-1.7 -0.856,-0.31 -1.668,0.28 -2.406,2.1 -3.668,9.09 -7.387,19.67 -7.731,20.53 -0.32,0.82 -5.023,11.02 -7.047,15.94 -0.734,1.84 -0.734,2.82 0.246,3.2 0.492,0.17 1.153,0.07 1.528,-0.95 0.64,-1.45 1.754,-3.29 2.707,-4.65 1.961,-3 5.949,-2.37 10.996,-1.14 7.285,2 20.297,7.29 36.136,13.71 l 69.79,28.24 -10.207,24.27 c -4.286,10.13 -7.032,13.63 -12.083,14.67 -3.554,0.71 -4.902,0.75 -6.265,0.77 -1.488,-0.06 -2.024,0.33 -2.301,0.96 -0.199,0.52 0.172,1.04 1.149,1.43 1.667,0.7 17.171,3.11 18.625,3.35 1.16,0.04 3.558,0.26 3.804,-0.42 0.5,-1.14 -0.523,-3.48 0.973,-8.04 1.422,-5 3.625,-11.4 4.433,-13.4 l 25.071,-61.84 c 4.265,-10.56 7.722,-14.37 8.246,-15.69 0.359,-0.84 -0.66,-1.23 -1.637,-1.61 -4.933,-2.02 -16.543,-6.14 -18.348,-6.86 -1.496,-0.62 -2.363,-0.4 -2.648,0.29 -0.324,0.82 0.051,1.34 2.305,2.45 l 1.738,0.87 c 4.652,2.68 6.961,8.02 0.863,24 l -8.101,20.87 -69.797,-28.2 v 0" /><path
         id="path92"
         style="fill:#1a5dad;fill-opacity:1;fill-rule:nonzero;stroke:none"
         d="m 701.078,1413.92 c -15.308,-7.52 -27.953,-13.72 -34.265,-17.82 -4.387,-2.74 -7.442,-5.43 -5.704,-10.56 0.762,-2.36 2.192,-6.03 2.879,-7.5 0.453,-0.94 0.149,-1.51 -0.343,-1.72 -0.797,-0.4 -1.672,0.18 -2.536,1.95 -4.312,8.77 -8.765,19.05 -9.152,19.85 -0.394,0.82 -5.812,10.63 -8.195,15.45 -0.832,1.77 -0.946,2.73 0.043,3.14 0.488,0.26 1.101,0.16 1.554,-0.78 0.739,-1.41 1.996,-3.2 2.996,-4.45 2.243,-2.91 6.137,-2 11.086,-0.37 7.09,2.5 19.735,8.73 35.063,16.26 l 28.09,13.81 c 24.945,12.28 29.402,14.49 34.386,17.3 5.247,2.98 7.208,5.9 6.266,9.82 -0.398,2.02 -1.254,4.17 -1.801,5.25 -0.324,0.66 -0.297,1.48 0.34,1.79 0.965,0.45 1.684,-0.19 2.531,-1.93 2.625,-5.3 7.071,-15.56 7.461,-16.37 0.387,-0.82 5.813,-10.63 8.157,-15.41 0.863,-1.77 0.925,-2.73 0,-3.22 -0.672,-0.32 -1.301,0.18 -1.614,0.83 -0.562,1.1 -1.172,2.01 -2.429,3.74 -2.922,3.9 -6.278,3.85 -12.02,1.43 -5.262,-2.19 -9.754,-4.38 -34.652,-16.63 l -28.141,-13.86 v 0" /><path
         id="path94"
         style="fill:#1a5dad;fill-opacity:1;fill-rule:nonzero;stroke:none"
         d="m 758.609,1369.73 c 23.895,14.21 28.145,16.78 32.879,19.99 5.012,3.43 6.754,6.1 4.789,11.79 -0.433,1.38 -1.828,4.1 -2.625,5.46 -0.359,0.65 -0.425,1.43 0.2,1.78 0.91,0.54 1.675,0 2.648,-1.75 4.105,-6.86 9.191,-16.46 10.043,-17.83 0.824,-1.41 6.738,-10.26 9.449,-14.86 1.02,-1.67 1.149,-2.65 0.246,-3.22 -0.629,-0.34 -1.277,0.12 -1.672,0.69 -0.617,1.09 -1.32,1.91 -2.711,3.59 -3.062,3.73 -6.546,3.32 -12.082,0.45 -5.093,-2.58 -9.375,-5.18 -33.218,-19.4 l -21.418,-12.7 c -22.039,-13.12 -28.629,-23.68 -30.957,-33.99 -2.621,-11.69 0.129,-19.39 5.328,-28.07 5.558,-9.35 15.457,-15.89 25.328,-17.49 12.867,-1.82 26.973,4.04 42.746,13.45 l 19.129,11.36 c 23.852,14.22 28.133,16.8 32.844,19.96 5.031,3.42 6.75,6.11 4.793,11.79 -0.407,1.41 -1.821,4.09 -2.645,5.49 -0.34,0.59 -0.426,1.4 0.215,1.74 0.895,0.57 1.668,0 2.668,-1.71 4.086,-6.84 8.637,-15.56 9.199,-16.47 0.625,-1.05 5.391,-8 8.11,-12.58 1.019,-1.67 1.148,-2.64 0.246,-3.15 -0.637,-0.34 -1.282,0.01 -1.68,0.65 -0.613,1.06 -1.176,2 -2.703,3.55 -3.238,3.64 -6.574,3.36 -12.078,0.45 -5.106,-2.6 -9.379,-5.14 -33.246,-19.31 l -16.387,-9.76 c -16.516,-9.86 -35.945,-18.89 -54.078,-13.18 -16.371,5.21 -24.723,15.79 -30.094,24.8 -3.137,5.17 -11.695,21.01 -7.898,37.98 2.722,11.76 9.992,23.93 32.3,37.19 l 22.332,13.31 z m 107.782,-32.78 c -0.907,-1.58 -1.844,-1.09 -2.192,-0.41 -0.281,0.41 -0.871,2.12 -2.754,4.53 -5.218,7 -15.101,15.66 -20.246,19.45 -1.109,0.77 -1.941,1.5 -2.097,1.83 -0.223,0.3 -0.184,0.93 0.453,1.3 0.433,0.29 0.929,0.14 1.832,-0.37 7.105,-3.22 24.136,-12.34 25.386,-13.03 3.067,-1.69 4.079,-2.33 4.532,-3.11 0.261,-0.43 0.136,-0.93 -0.453,-2.35 -0.911,-1.97 -2.407,-4.35 -4.461,-7.84 v 0" /><path
         id="path96"
         style="fill:#1a5dad;fill-opacity:1;fill-rule:nonzero;stroke:none"
         d="m 832.336,1195.79 c -13.934,-9.87 -25.422,-18 -30.996,-23.1 -3.934,-3.44 -6.469,-6.58 -4.016,-11.34 1.196,-2.19 3.149,-5.59 4.078,-6.92 0.641,-0.88 0.395,-1.44 -0.062,-1.77 -0.699,-0.53 -1.676,-0.11 -2.789,1.51 -5.641,7.97 -11.727,17.42 -12.219,18.17 -0.519,0.69 -7.445,9.57 -10.519,13.89 -1.157,1.64 -1.387,2.56 -0.481,3.16 0.406,0.3 1.047,0.3 1.672,-0.52 0.926,-1.32 2.473,-2.87 3.648,-3.98 2.684,-2.46 6.364,-0.93 11.008,1.48 6.621,3.59 18.11,11.71 32.039,21.58 l 25.555,18.11 c 22.641,16.1 26.719,18.95 31.144,22.59 4.758,3.76 6.196,6.93 4.625,10.66 -0.66,1.91 -1.886,3.87 -2.601,4.92 -0.402,0.58 -0.547,1.35 0.066,1.81 0.864,0.58 1.672,0.09 2.77,-1.54 3.433,-4.81 9.484,-14.22 10.012,-14.94 0.488,-0.75 7.41,-9.59 10.511,-13.95 1.114,-1.57 1.36,-2.5 0.449,-3.13 -0.55,-0.44 -1.257,-0.1 -1.664,0.51 -0.738,1.05 -1.468,1.8 -3,3.35 -3.519,3.4 -6.824,2.81 -12.078,-0.5 -4.886,-3.02 -8.918,-5.92 -31.601,-21.95 l -25.551,-18.1 v 0" /><path
         id="path98"
         style="fill:#1a5dad;fill-opacity:1;fill-rule:nonzero;stroke:none"
         d="m 878.637,1132.98 c -13.012,-11.02 -23.77,-20.05 -30.028,-24.21 -4.433,-2.77 -7.988,-4.65 -10.859,-2.41 -1.281,1.02 -2.941,2.41 -3.98,3.62 -0.657,0.86 -1.336,0.79 -1.707,0.41 -0.84,-0.67 -0.536,-1.59 0.75,-3.07 3.417,-4.07 11.093,-12.28 11.636,-13 1.156,-1.35 14.004,-19.87 23.891,-31.59 19.504,-23.12 39.348,-27.29 50.426,-27.98 14.457,-0.86 33.601,3.19 50.746,17.73 16.195,13.61 22.074,29.56 23.441,42.3 3.067,30.32 -19.199,54.18 -30.555,67.66 -6.878,8.2 -14.562,16.37 -15.894,18 -0.621,0.71 -7.426,9.59 -12.586,15.75 -1.281,1.48 -2.137,1.89 -2.949,1.26 -0.539,-0.5 -0.367,-1.26 0.121,-1.82 1.051,-1.17 2.863,-3.63 3.496,-4.95 2.836,-5.29 1.562,-8.21 -2.824,-12.35 -4.117,-3.99 -7.914,-7.23 -29.125,-25.11 l -24,-20.24 z m 35.816,10.6 c 10.485,8.86 24.336,20.58 29.067,24.35 1.503,1.23 2.515,1.4 4.082,0.68 1.496,-0.64 6.164,-5.31 8.461,-8.03 13.656,-16.18 24.828,-33.3 22.156,-57.47 -1.114,-10.52 -5.953,-27.43 -23.262,-41.97 -12.523,-10.58 -28.766,-17.8 -41.695,-16.62 -14.793,1.29 -29.285,9.09 -39.969,21.73 -13.559,16.06 -15.195,23.77 -14.07,27.69 0.558,2.36 5.777,7.24 9.047,10.25 2.476,2.34 14.867,13.01 29.289,25.2 l 16.894,14.19 v 0" /><path
         id="path100"
         style="fill:#1a5dad;fill-opacity:1;fill-rule:nonzero;stroke:none"
         d="m 1106.46,923.109 c -15.08,-17.39 -27.49,-31.711 -33.13,-40.097 -4.02,-5.711 -6.38,-10.633 -1.58,-16.043 2.22,-2.539 5.88,-6.387 7.52,-7.809 1.11,-0.961 0.97,-1.82 0.52,-2.359 -0.82,-0.86 -2.16,-0.641 -4.18,1.09 -9.95,8.629 -20.88,19.07 -21.81,19.847 -0.89,0.762 -12.76,10.102 -18.2,14.801 -1.97,1.731 -2.59,2.859 -1.66,3.949 0.48,0.543 1.31,0.801 2.39,-0.129 1.63,-1.449 4.14,-2.918 6.1,-4.019 4.2,-2.41 8.59,0.832 13.85,5.469 7.49,6.773 19.89,21.101 34.96,38.48 l 66.34,76.671 -27.13,22.83 c -11.39,9.57 -16.8,12.05 -23.51,10.18 -4.66,-1.35 -6.3,-2.09 -7.92,-2.94 -1.83,-0.98 -2.64,-0.86 -3.38,-0.23 -0.56,0.5 -0.41,1.34 0.47,2.43 1.62,1.79 18.71,14.24 20.34,15.37 1.28,0.77 4.09,2.5 4.78,1.89 1.25,-1.12 1.53,-4.48 6.09,-9.1 4.8,-5.07 11.35,-11.37 13.51,-13.27 l 67.98,-58.831 c 11.57,-10.07 18.04,-12.48 19.47,-13.73 0.9,-0.758 -0.02,-1.887 -0.93,-2.977 -4.75,-5.363 -16.09,-17.422 -17.84,-19.441 -1.38,-1.629 -2.58,-1.903 -3.31,-1.27 -0.89,0.82 -0.8,1.66 1.22,4.359 l 1.58,2.18 c 3.96,6.031 3.4,13.77 -13.66,29.238 l -22.53,20.133 -66.35,-76.672 v 0" /><path
         id="path102"
         style="fill:#1a5dad;fill-opacity:1;fill-rule:nonzero;stroke:none"
         d="m 1191.23,872.512 c 16.33,22.398 19.29,26.437 22.36,31.25 3.3,5.097 3.82,8.269 -0.19,12.718 -0.93,1.141 -3.3,3.04 -4.59,4.008 -0.59,0.422 -0.93,1.133 -0.51,1.723 0.63,0.82 1.56,0.559 3.13,-0.59 6.47,-4.73 15.22,-11.723 15.94,-12.281 1.01,-0.668 29.61,-21.61 33.05,-23.879 2.82,-1.859 5.32,-3.25 6.68,-3.789 0.86,-0.371 1.83,-0.223 2.54,-0.711 0.47,-0.371 0.17,-1.051 -0.33,-1.742 -0.73,-1.028 -2.72,-2.231 -6.11,-5.93 -1.21,-1.348 -6.09,-7.449 -7.66,-8.969 -0.64,-0.57 -1.57,-1.25 -2.15,-0.859 -0.83,0.648 -0.63,1.598 0.21,2.75 0.76,0.988 2.36,3.519 2.92,5.758 0.67,3.051 0.5,5.812 -6.66,12.312 -2.21,2.11 -17.79,13.719 -19.39,14.86 -0.55,0.418 -1.14,0.218 -1.88,-0.801 l -28.97,-39.711 c -0.73,-1.02 -0.91,-1.508 -0.21,-2.039 1.89,-1.41 19.57,-14.289 23.08,-16.418 3.7,-2.262 5.89,-3.402 8.22,-2.91 1.84,0.41 2.97,0.726 3.57,0.277 0.42,-0.277 0.48,-0.809 -0.14,-1.629 -0.63,-0.871 -3.14,-2.82 -7.01,-7.269 -2.41,-2.641 -6.58,-7.743 -7.31,-8.77 -0.84,-1.129 -2,-2.723 -3,-1.949 -0.72,0.5 -0.58,1.269 -0.07,2 1.05,1.398 2.11,2.859 2.9,5.18 0.9,2.41 1.39,5.808 -3.8,10.488 -3.58,3.242 -17.62,13.922 -20.06,15.699 -0.7,0.531 -1.33,0.301 -1.74,-0.269 l -9.24,-12.661 c -3.54,-4.871 -15.87,-21.5 -17.92,-24.57 -6.84,-10.277 -6.03,-13.668 8.07,-23.969 3.73,-2.75 10.07,-7.328 14.95,-8.488 4.91,-1.16 8.69,0.457 14.04,5.656 1.45,1.332 2.14,1.723 2.88,1.223 0.84,-0.652 0,-1.84 -0.74,-2.84 -0.83,-1.16 -9.12,-10.101 -12.04,-12.551 -3.73,-3 -4.88,-2.191 -10.48,1.891 -21.73,15.859 -30.72,23.75 -34.89,26.789 -0.75,0.531 -10.11,6.699 -14.41,9.871 -1.58,1.141 -2.1,1.918 -1.48,2.828 0.31,0.43 0.95,0.621 1.78,0 1.28,-0.937 3.24,-1.918 4.73,-2.57 3.32,-1.527 6.33,1.101 9.96,4.851 5.1,5.579 13.41,16.899 23.47,30.692 l 18.5,25.34 v 0" /><path
         id="path104"
         style="fill:#1a5dad;fill-opacity:1;fill-rule:nonzero;stroke:none"
         d="m 1286.16,769.539 c -9.12,-14.437 -16.65,-26.359 -19.89,-33.168 -2.3,-4.609 -3.49,-8.531 0.66,-11.98 1.91,-1.629 5.02,-4.039 6.38,-4.871 0.91,-0.598 0.93,-1.211 0.63,-1.661 -0.46,-0.718 -1.5,-0.718 -3.17,0.313 -8.29,5.219 -17.47,11.668 -18.21,12.129 -0.78,0.5 -10.53,6 -15.04,8.847 -1.69,1.09 -2.24,1.872 -1.65,2.782 0.28,0.41 0.87,0.691 1.74,0.129 1.36,-0.879 3.38,-1.719 4.92,-2.27 3.39,-1.301 6.22,1.52 9.61,5.5 4.73,5.859 12.22,17.75 21.38,32.211 l 16.71,26.5 c 14.83,23.449 17.49,27.68 20.24,32.699 2.91,5.332 3.02,8.84 0.19,11.68 -1.38,1.441 -3.24,2.832 -4.28,3.543 -0.62,0.379 -0.98,1.019 -0.64,1.637 0.57,0.91 1.52,0.742 3.16,-0.309 4.97,-3.129 14.16,-9.59 14.95,-10.039 0.75,-0.5 10.5,-6.02 15.03,-8.871 1.63,-1.02 2.19,-1.77 1.63,-2.731 -0.39,-0.589 -1.18,-0.519 -1.77,-0.16 -1.05,0.68 -2.06,1.121 -4.04,1.93 -4.52,1.84 -7.38,0.031 -11,-5.059 -3.34,-4.66 -5.99,-8.82 -20.81,-32.3 l -16.73,-26.481 v 0" /><path
         id="path106"
         style="fill:#1a5dad;fill-opacity:1;fill-rule:nonzero;stroke:none"
         d="m 1335.29,699.371 c -8.04,21.809 -2.33,41.738 5.56,56.668 5.6,10.551 18.96,27.031 40.38,33.633 14.41,4.5 32.66,4.308 56.9,-8.531 6.27,-3.332 14.82,-8.481 21.81,-13.95 5.38,-4.261 9.96,-7.871 14.83,-10.82 1.62,-1.09 1.59,-1.91 1.1,-2.84 -0.66,-1.301 -2.12,-2.929 -5.46,-8.383 -3.06,-5.027 -7.64,-13.687 -9.02,-15.976 -1.43,-2.281 -2.24,-3.043 -3.17,-2.551 -1.11,0.551 -0.7,1.777 0.49,3.938 3.23,6.171 4.14,13.953 1.87,19.57 -3.01,7.652 -12.87,18.332 -26.74,25.641 -20.92,11.07 -33.92,10.039 -42.28,7.679 -17.3,-4.98 -27.37,-17.578 -35.85,-33.648 -15.9,-30.051 -7.33,-69.821 26.35,-87.59 11.81,-6.289 21.83,-9.77 31.54,-6.672 5.13,1.77 10.84,7.582 12.83,10.172 1.21,1.57 1.84,2.019 2.76,1.5 0.81,-0.391 0.57,-1.672 -0.08,-2.91 -0.58,-1.09 -9.71,-13.801 -14.14,-18.34 -2.52,-2.461 -3,-2.59 -6.51,-2.371 -7.63,0.781 -20.17,6.051 -30.24,11.359 -23.61,12.492 -36.41,26.699 -42.93,44.422 v 0" /><path
         id="path108"
         style="fill:#1a5dad;fill-opacity:1;fill-rule:nonzero;stroke:none"
         d="m 1486.68,632.559 c -5.06,-13.688 -5.14,-18.637 -1.15,-21.707 2.78,-2.122 6.36,-3.731 7.82,-4.321 0.85,-0.32 1.22,-0.82 0.95,-1.5 -0.39,-0.992 -1.5,-0.91 -3.48,-0.16 -9.45,3.758 -15.85,6.899 -17.35,7.457 -1.49,0.633 -8.63,2.902 -16.09,5.82 -1.63,0.641 -2.59,1.282 -2.13,2.411 0.28,0.64 0.91,0.8 1.76,0.461 1.28,-0.551 4.35,-1.551 7.16,-1.688 4.6,-0.543 7.32,3.957 13.31,19.008 l 37.86,94.719 c 2.57,6.461 3.79,8.121 5.12,7.55 1.31,-0.488 2.68,-5.289 3.68,-7.578 1.36,-3.82 15.44,-40.23 30.02,-77.679 9.39,-24.012 19.39,-51.391 22.55,-58.954 l 31.6,84.782 c 4.07,10.789 4.38,14.871 -0.21,18.281 -2.73,1.809 -6.44,3.5 -7.81,4.039 -1.11,0.449 -1.08,1.02 -0.82,1.68 0.37,1 1.79,0.629 3.76,-0.16 7.45,-2.95 15.18,-6.649 17.02,-7.34 1.78,-0.719 7.46,-2.399 14.25,-5.11 1.8,-0.691 2.93,-1.328 2.49,-2.34 -0.22,-0.671 -1.1,-0.878 -2.29,-0.449 -0.78,0.367 -1.95,0.821 -4.15,1.071 -5.9,1.039 -8.04,-2.332 -11.97,-12.231 l -38.89,-96.832 c -4.32,-10.918 -4.99,-11.609 -6.14,-11.148 -1.3,0.531 -2.59,3.14 -7.87,15.41 -1.15,2.359 -15.31,36.14 -25.35,61.969 -10.97,28.351 -21.34,56.601 -24.27,64.652 l -29.38,-80.113 v 0" /><path
         id="path110"
         style="fill:#1a5dad;fill-opacity:1;fill-rule:nonzero;stroke:none"
         d="m 1673.33,627.059 c 7.73,26.691 9.09,31.453 10.35,37.023 1.32,5.957 0.75,9.066 -4.54,11.867 -1.3,0.75 -4.14,1.77 -5.67,2.25 -0.7,0.192 -1.26,0.699 -1.1,1.371 0.33,1.039 1.27,1.16 3.14,0.59 7.72,-2.211 18.33,-5.871 19.21,-6.101 1.16,-0.348 35.2,-10.188 39.21,-11.161 3.25,-0.718 6.13,-1.179 7.58,-1.277 0.91,-0.09 1.77,0.41 2.65,0.16 0.48,-0.16 0.48,-0.883 0.24,-1.75 -0.35,-1.14 -1.82,-2.992 -3.7,-7.633 -0.64,-1.66 -3.18,-9.078 -4.13,-11.027 -0.43,-0.781 -1.05,-1.723 -1.75,-1.562 -1.02,0.312 -1.11,1.281 -0.72,2.652 0.34,1.168 1.01,4.121 0.75,6.461 -0.41,3.066 -1.49,5.617 -10.43,9.297 -2.83,1.23 -21.42,6.761 -23.32,7.261 -0.65,0.231 -1.13,-0.16 -1.47,-1.359 l -13.66,-47.172 c -0.4,-1.25 -0.34,-1.789 0.52,-2.051 2.22,-0.609 23.23,-6.718 27.27,-7.457 4.21,-0.91 6.68,-1.23 8.76,0 1.58,1.028 2.51,1.68 3.2,1.438 0.5,-0.07 0.75,-0.508 0.42,-1.578 -0.25,-0.992 -1.96,-3.672 -4.1,-9.141 -1.3,-3.351 -3.51,-9.558 -3.86,-10.75 -0.42,-1.422 -0.95,-3.289 -2.16,-2.91 -0.83,0.219 -0.97,1.031 -0.75,1.898 0.52,1.692 0.98,3.411 0.97,5.821 0,2.59 -0.68,5.941 -7.15,8.543 -4.46,1.859 -21.31,7.109 -24.2,7.949 -0.87,0.168 -1.36,-0.191 -1.56,-0.84 l -4.36,-15.082 c -1.67,-5.789 -7.59,-25.59 -8.47,-29.23 -2.88,-11.969 -0.96,-14.887 15.78,-19.758 4.45,-1.27 11.99,-3.449 16.97,-2.86 5,0.547 8.04,3.399 11.23,10.079 0.91,1.8 1.48,2.371 2.31,2.109 1.04,-0.289 0.63,-1.66 0.28,-2.859 -0.38,-1.372 -5.13,-12.598 -7.02,-15.95 -2.49,-4.082 -3.85,-3.691 -10.53,-1.781 -25.8,7.492 -36.99,11.801 -41.94,13.231 -0.85,0.3 -11.77,2.902 -16.88,4.378 -1.88,0.532 -2.66,1.141 -2.36,2.153 0.16,0.519 0.65,0.918 1.66,0.64 1.53,-0.461 3.71,-0.671 5.32,-0.82 3.62,-0.281 5.59,3.211 7.7,8 2.93,6.891 6.84,20.418 11.59,36.867 l 8.72,30.071 v 0" /><path
         id="path112"
         style="fill:#1a5dad;fill-opacity:1;fill-rule:nonzero;stroke:none"
         d="m 1766.9,584.289 c -5.91,-31.469 6.98,-72.5 54.9,-81.551 42.14,-7.968 75.93,19.172 83.32,58.41 7.69,40.743 -16.99,71.09 -56.35,78.512 -48.3,9.149 -76.5,-27 -81.87,-55.371 z m 17.55,1.801 c 7.23,38.242 32.73,53.41 62,47.922 27.62,-5.231 48.88,-32.68 40.92,-74.641 -9.6,-50.91 -43.86,-53.851 -59.57,-50.871 -31.51,5.98 -51.04,36.801 -43.35,77.59 v 0" /><path
         id="path114"
         style="fill:#1a5dad;fill-opacity:1;fill-rule:nonzero;stroke:none"
         d="m 1968.74,535.711 c -2.54,-26.039 -2.93,-37.422 -0.05,-40.941 2.56,-3.098 7.08,-4.821 20.87,-6.161 9.39,-0.91 17.19,-1.468 21.96,3.282 2.57,2.578 4.78,6.859 5.65,10.148 0.33,1.391 0.78,2.262 1.83,2.199 0.86,-0.09 0.96,-0.84 0.79,-2.769 -0.17,-1.957 -2.48,-12.489 -4.39,-17.469 -1.64,-4.008 -2.22,-4.641 -11.63,-3.711 -25.49,2.461 -37.09,4.652 -47.35,5.652 -1.62,0.149 -12.13,0.629 -17.44,1.168 -1.97,0.18 -2.8,0.59 -2.69,1.692 0.07,0.519 0.42,1.058 1.52,0.879 1.61,-0.11 3.76,0 5.36,0.25 3.62,0.34 4.88,4.16 6.1,9.23 1.6,7.371 2.97,21.352 4.63,38.371 l 3,31.211 c 2.7,27.61 3.17,32.559 3.38,38.258 0.24,6.07 -0.92,9.07 -6.67,10.879 -1.34,0.43 -4.34,0.91 -5.93,1.062 -0.74,0.118 -1.42,0.528 -1.33,1.207 0.1,1.102 1.05,1.321 2.95,1.211 8,-0.8 19.14,-2.418 20,-2.57 0.85,-0.039 13.86,-0.789 19.18,-1.269 1.94,-0.239 2.8,-0.629 2.68,-1.719 -0.08,-0.68 -0.8,-0.949 -1.49,-0.903 -1.26,0.153 -3.77,0.192 -5.92,0 -5.22,-0.328 -6.93,-3.238 -7.88,-9.378 -0.91,-5.668 -1.39,-10.622 -4.07,-38.258 l -3.06,-31.551 v 0" /><path
         id="path116"
         style="fill:#1a5dad;fill-opacity:1;fill-rule:nonzero;stroke:none"
         d="m 2059.82,496.809 c -3.31,-8.829 -6.99,-15.559 -15.2,-16.469 -1.44,-0.168 -3.93,-0.348 -5.15,-0.309 -0.91,0.051 -1.65,-0.32 -1.65,-1.051 0,-1.089 1.05,-1.398 3.4,-1.441 8.34,-0.148 18.13,0.262 20.12,0.191 1.91,-0.011 9.58,-0.648 13.85,-0.75 1.6,0 2.67,0.329 2.67,1.372 0,0.73 -0.51,1.078 -1.73,1.128 h -1.79 c -3.01,0.059 -6.72,1.731 -6.67,5.301 0.04,3.199 1.02,7.457 2.64,11.899 l 11.18,31.289 c 0.39,0.929 0.91,1.429 1.83,1.429 l 38.23,-0.578 c 0.9,-0.05 1.25,-0.359 1.59,-1.09 l 15.89,-44.039 c 1.03,-2.89 -0.06,-4.453 -1.11,-4.8 -0.72,-0.18 -1.29,-0.539 -1.29,-1.231 -0.05,-1.078 1.94,-1.078 5.34,-1.301 12.25,-0.57 25.26,-0.789 27.9,-0.82 1.99,-0.027 3.58,0.313 3.59,1.402 0,0.86 -0.69,1.098 -1.74,1.098 -1.8,0 -4.49,0.25 -7.14,1.16 -3.67,1.141 -8.81,4.039 -14.97,20 -10.48,27.199 -37.29,101.153 -39.83,107.922 -2.06,5.609 -2.77,6.488 -3.83,6.488 -1.05,0 -1.78,-1.039 -4.06,-6.898 l -42.07,-109.902 z m 25.56,38.98 c -0.57,0 -0.91,0.383 -0.53,1.199 l 16.4,47.871 c 0.92,2.641 1.8,2.641 2.64,-0.05 l 16.19,-48.27 c 0.17,-0.75 0.17,-1.32 -0.72,-1.277 l -33.98,0.527 v 0" /><path
         id="path118"
         style="fill:#1a5dad;fill-opacity:1;fill-rule:nonzero;stroke:none"
         d="m 2228.69,530.91 c 0.98,-17.039 1.8,-31.082 3.07,-38.519 0.8,-5.102 2.14,-8.95 7.5,-9.403 2.5,-0.207 6.39,-0.308 7.99,-0.238 1.09,0.051 1.47,-0.449 1.5,-1.012 0.04,-0.84 -0.82,-1.437 -2.76,-1.527 -9.78,-0.59 -21.02,-0.672 -21.85,-0.731 -0.91,-0.05 -12.13,-1.191 -17.41,-1.492 -1.98,-0.109 -2.85,0.203 -2.92,1.274 -0.03,0.5 0.25,1.078 1.33,1.136 1.62,0.09 3.73,0.582 5.29,1.032 3.52,0.898 4.2,4.832 4.61,10.019 0.51,7.563 -0.31,21.563 -1.26,38.641 l -1.77,31.25 c -1.58,27.742 -1.8,32.742 -2.5,38.41 -0.64,6 -2.62,8.91 -6.61,9.621 -1.97,0.418 -4.31,0.449 -5.52,0.379 -0.72,0 -1.46,0.281 -1.5,0.98 -0.04,1.059 0.82,1.489 2.76,1.598 5.87,0.344 17.14,0.422 17.98,0.461 0.88,0.063 12.07,1.231 17.42,1.5 1.95,0.141 2.85,-0.18 2.9,-1.269 0.05,-0.692 -0.66,-1.079 -1.34,-1.079 -1.24,-0.101 -2.34,-0.332 -4.43,-0.82 -4.75,-1.18 -5.99,-4.25 -6.04,-10.48 -0.03,-5.743 0.25,-10.692 1.84,-38.43 l 1.72,-31.301 z m 13.75,108.11 c 0.95,-1.559 0.13,-2.098 -0.61,-2.168 -0.53,0 -2.3,0.238 -5.3,-0.301 -8.68,-1.391 -20.89,-6.11 -26.63,-8.961 -1.19,-0.641 -2.23,-1.02 -2.58,-1.051 -0.37,-0.027 -0.94,0.293 -0.94,1.02 -0.03,0.492 0.26,0.902 1.14,1.472 6.11,4.821 22.11,15.688 23.33,16.489 2.9,1.929 3.95,2.5 4.83,2.562 0.53,0.047 0.97,-0.262 1.89,-1.5 1.32,-1.703 2.72,-4.121 4.87,-7.562 v 0" /><path
         id="path120"
         style="fill:#1a5dad;fill-opacity:1;fill-rule:nonzero;stroke:none"
         d="m 2284.28,549.648 c 4.43,-31.738 29.83,-66.476 78.16,-59.628 42.46,6.039 65.68,42.562 60.16,82.062 -5.82,41.047 -38.98,61.93 -78.6,56.297 -48.69,-6.91 -63.79,-50.188 -59.72,-78.731 z m 15.99,7.301 c -5.47,38.59 13.84,61.09 43.31,65.242 27.86,3.957 56.83,-15.121 62.79,-57.421 7.25,-51.348 -24.26,-65.141 -40.11,-67.391 -31.75,-4.449 -60.17,18.492 -65.99,59.57 v 0" /><path
         id="path122"
         style="fill:#1a5dad;fill-opacity:1;fill-rule:nonzero;stroke:none"
         d="m 2491.88,532.789 c -20.48,10.832 -29.58,29.449 -33.7,45.852 -2.9,11.578 -4.04,32.738 7.49,52.007 7.73,12.942 21.4,25.032 47.97,31.723 6.96,1.711 16.74,3.66 25.58,4.199 6.85,0.461 12.63,0.821 18.26,1.821 1.94,0.328 2.5,-0.27 2.73,-1.262 0.31,-1.418 0.35,-3.66 1.59,-9.91 1.08,-5.821 3.46,-15.309 3.92,-17.918 0.5,-2.629 0.38,-3.789 -0.66,-4.031 -1.22,-0.301 -1.63,0.832 -2.28,3.281 -1.7,6.769 -6.21,13.129 -11.67,15.758 -7.33,3.679 -21.82,4.992 -36.99,1.222 -23.01,-5.82 -31.97,-15.261 -36.54,-22.652 -9.59,-15.231 -8.62,-31.297 -4.24,-48.981 8.33,-32.929 41.3,-56.789 78.22,-47.468 12.93,3.218 22.76,7.332 27.89,16.218 2.67,4.68 2.98,12.821 2.73,16.094 -0.13,1.938 0.06,2.77 1.05,2.996 0.88,0.211 1.55,-0.906 1.86,-2.277 0.34,-1.223 2.04,-16.75 1.77,-23.051 -0.23,-3.558 -0.41,-4.012 -3.22,-6.129 -6.19,-4.492 -19.01,-9.019 -30.08,-11.812 -25.88,-6.52 -44.91,-4.52 -61.68,4.32 v 0" /><path
         id="path124"
         style="fill:#1a5dad;fill-opacity:1;fill-rule:nonzero;stroke:none"
         d="m 2736.04,645.82 c 5.95,-15.992 10.84,-29.109 14.25,-35.879 2.29,-4.64 4.7,-7.961 9.92,-6.769 2.48,0.539 6.26,1.59 7.77,2.129 1.02,0.371 1.52,0 1.66,-0.5 0.31,-0.84 -0.32,-1.66 -2.11,-2.34 -9.21,-3.402 -19.87,-6.789 -20.76,-7.102 -0.79,-0.308 -11.14,-4.73 -16.15,-6.589 -1.82,-0.68 -2.8,-0.641 -3.16,0.312 -0.21,0.559 -0.07,1.18 0.96,1.547 1.5,0.543 3.39,1.633 4.74,2.543 3.14,1.879 2.57,5.887 1.45,11 -1.77,7.308 -6.65,20.437 -12.58,36.508 l -6.54,17.492 c -0.2,0.719 -0.81,0.816 -1.36,0.648 l -70.76,-26.261 c -0.53,-0.161 -0.94,-0.547 -0.62,-1.368 l 6.52,-17.531 c 5.9,-16.039 10.77,-29.23 14.22,-35.93 2.32,-4.609 4.67,-7.96 9.94,-6.691 2.44,0.473 6.27,1.481 7.77,2.082 1,0.34 1.51,0 1.66,-0.519 0.31,-0.832 -0.3,-1.641 -2.14,-2.313 -9.17,-3.437 -19.89,-6.84 -20.73,-7.098 -0.82,-0.351 -11.13,-4.722 -16.17,-6.621 -1.85,-0.64 -2.77,-0.64 -3.18,0.379 -0.15,0.481 0,1.102 0.95,1.481 1.54,0.519 3.39,1.629 4.77,2.531 3.12,1.918 2.6,5.891 1.46,10.988 -1.78,7.313 -6.68,20.5 -12.59,36.52 l -10.94,29.402 c -9.62,26 -11.38,30.66 -13.66,35.879 -2.47,5.59 -4.79,7.738 -10.71,6.859 -1.47,-0.16 -4.37,-1.039 -5.84,-1.597 -0.68,-0.242 -1.52,-0.16 -1.78,0.519 -0.31,1.028 0.41,1.649 2.22,2.348 7.46,2.75 18.19,6.16 19.05,6.473 0.84,0.296 11.13,4.699 16.15,6.597 1.84,0.641 2.84,0.602 3.18,-0.398 0.25,-0.629 -0.3,-1.262 -0.99,-1.449 -1.14,-0.461 -2.08,-1.051 -3.96,-2.09 -4.2,-2.524 -4.47,-5.813 -2.66,-11.813 1.67,-5.449 3.38,-10.148 13.04,-36.148 l 1.34,-3.5 c 0.29,-0.871 0.86,-0.809 1.35,-0.653 l 70.76,26.223 c 0.53,0.199 0.94,0.59 0.63,1.41 l -1.31,3.508 c -9.66,26.012 -11.37,30.691 -13.71,35.941 -2.46,5.52 -4.78,7.719 -10.7,6.829 -1.42,-0.161 -4.36,-1.02 -5.87,-1.59 -0.64,-0.27 -1.44,-0.18 -1.69,0.511 -0.41,0.989 0.32,1.629 2.16,2.309 7.5,2.762 18.21,6.172 19.05,6.5 0.85,0.301 11.15,4.723 16.2,6.551 1.82,0.672 2.76,0.672 3.14,-0.328 0.24,-0.633 -0.3,-1.274 -0.98,-1.5 -1.17,-0.453 -2.08,-0.973 -3.97,-2.032 -4.2,-2.511 -4.46,-5.832 -2.64,-11.832 1.63,-5.468 3.36,-10.128 13.01,-36.207 l 10.94,-29.371 v 0" /><path
         id="path126"
         style="fill:#1a5dad;fill-opacity:1;fill-rule:nonzero;stroke:none"
         d="m 2841.67,694.762 c 7.52,-15.352 13.71,-27.973 17.86,-34.274 2.72,-4.398 5.44,-7.449 10.51,-5.75 2.41,0.801 6.11,2.203 7.52,2.934 0.95,0.457 1.49,0.129 1.75,-0.344 0.38,-0.789 -0.16,-1.68 -1.94,-2.558 -8.8,-4.309 -19.08,-8.77 -19.89,-9.141 -0.78,-0.457 -10.58,-5.859 -15.4,-8.199 -1.78,-0.918 -2.72,-0.918 -3.19,0 -0.22,0.492 -0.18,1.121 0.79,1.59 1.44,0.71 3.25,1.98 4.5,3.019 2.88,2.191 1.97,6.09 0.31,11.043 -2.53,7.09 -8.73,19.719 -16.26,35.066 l -33.22,67.543 -23.51,-11.941 c -9.82,-4.988 -13.11,-8 -13.8,-13.191 -0.38,-3.52 -0.3,-4.887 -0.29,-6.239 0.19,-1.5 -0.16,-2.07 -0.81,-2.41 -0.45,-0.191 -1.01,0.121 -1.47,1.09 -0.79,1.602 -4.34,16.891 -4.65,18.34 -0.19,1.09 -0.56,3.5 0.08,3.851 1.11,0.508 3.52,-0.293 7.98,1.508 4.88,1.781 11.07,4.473 13.03,5.449 l 59.84,29.481 c 10.26,4.992 13.76,8.68 15.05,9.351 0.8,0.399 1.25,-0.558 1.77,-1.539 2.35,-4.793 7.26,-16.043 8.17,-17.8 0.69,-1.469 0.51,-2.332 -0.11,-2.692 -0.8,-0.32 -1.36,0 -2.61,2.129 l -1.02,1.692 c -2.99,4.5 -8.48,6.359 -23.98,-0.891 l -20.28,-9.609 33.27,-67.508 v 0" /><path
         id="path128"
         style="fill:#1a5dad;fill-opacity:1;fill-rule:nonzero;stroke:none"
         d="m 2926.29,702.629 c 1.82,-9.34 2.23,-16.957 -4.27,-22.07 -1.13,-0.879 -3.15,-2.27 -4.23,-2.95 -0.77,-0.449 -1.22,-1.14 -0.85,-1.769 0.57,-0.871 1.67,-0.649 3.64,0.539 7.21,4.32 15.34,9.812 16.98,10.82 1.73,0.992 8.53,4.5 12.21,6.66 1.36,0.789 2.1,1.661 1.55,2.602 -0.36,0.59 -0.96,0.59 -2.05,0 l -1.55,-0.941 c -2.6,-1.559 -6.59,-2.098 -8.43,0.98 -1.66,2.73 -3.07,6.879 -4.04,11.5 l -6.99,32.52 c -0.15,0.968 0.03,1.691 0.79,2.101 l 32.89,19.699 c 0.78,0.45 1.2,0.36 1.92,-0.109 l 36.66,-29.09 c 2.39,-1.91 2.33,-3.781 1.58,-4.641 -0.55,-0.589 -0.82,-1.128 -0.41,-1.718 0.5,-0.91 2.23,0.09 5.19,1.679 10.76,5.969 21.88,12.668 24.19,14.028 1.66,1 2.87,2.121 2.3,3.07 -0.45,0.75 -1.16,0.551 -2.08,0 -1.55,-0.949 -3.89,-2.109 -6.66,-2.738 -3.77,-1.012 -9.66,-1.242 -23.25,9.07 -23.24,17.668 -84.95,66.41 -90.74,70.809 -4.65,3.691 -5.75,4.082 -6.66,3.511 -0.91,-0.531 -0.94,-1.82 0.19,-7.98 l 22.12,-115.582 z m 1.18,46.519 c -0.46,-0.257 -0.96,-0.136 -1.14,0.813 l -11.19,49.277 c -0.64,2.793 0.15,3.242 2.3,1.364 l 39.19,-32.543 c 0.5,-0.5 0.77,-0.969 0,-1.43 l -29.16,-17.481 v 0" /><path
         id="path130"
         style="fill:#1a5dad;fill-opacity:1;fill-rule:nonzero;stroke:none"
         d="m 3107.11,828.07 c 4.23,-12.019 6.27,-22.082 -1.36,-30.191 -1.37,-1.399 -3.78,-3.668 -5.1,-4.77 -0.91,-0.75 -1.35,-1.73 -0.76,-2.449 0.94,-1.148 2.32,-0.578 4.74,1.41 8.75,7.09 18.48,15.95 20.58,17.641 2.02,1.66 10.43,7.559 14.9,11.25 1.66,1.379 2.5,2.629 1.62,3.75 -0.64,0.801 -1.51,0.68 -2.78,-0.371 l -1.89,-1.488 c -3.15,-2.622 -8.37,-4.11 -11.43,-0.391 -2.71,3.34 -5.46,8.519 -7.52,14.539 l -15.68,41.961 c -0.41,1.23 -0.31,2.258 0.64,2.988 l 39.92,32.582 c 0.91,0.758 1.62,0.668 2.6,0.25 l 54.52,-31.64 c 3.53,-2.039 3.76,-4.641 2.96,-5.86 -0.6,-0.82 -0.89,-1.691 -0.26,-2.41 0.91,-1.082 2.95,0.551 6.63,3.219 13.14,10.121 26.67,21.18 29.49,23.441 2.02,1.688 3.38,3.438 2.49,4.547 -0.76,0.91 -1.63,0.473 -2.77,-0.406 -1.84,-1.5 -4.79,-3.633 -8.36,-4.953 -4.8,-2.078 -12.6,-3.508 -32.77,7.613 -34.35,18.957 -126.06,71.918 -134.6,76.648 -6.92,3.969 -8.41,4.27 -9.55,3.399 -1.08,-0.93 -0.92,-2.641 1.82,-10.609 l 51.92,-149.7 z m -54,211.41 c -1.95,0.54 -2.63,0.59 -3.19,0.13 -0.93,-0.73 -1.58,-2.17 -3.21,-6.59 -0.72,-1.85 -9.49,-26.31 -12.4,-36.469 -0.45,-1.262 -0.56,-1.942 -0.1,-2.539 0.62,-0.723 1.47,-0.602 1.87,-0.313 0.36,0.313 1.15,1.59 2.02,3.18 4.01,7.601 13.51,22.501 21.88,30.841 2.83,2.95 4.98,4.08 5.57,4.54 0.73,0.58 1.23,1.9 -1.08,2.81 -5.09,2.07 -8.5,3.62 -11.36,4.41 z m 46.51,-149.16 c -0.55,-0.48 -1.2,-0.39 -1.58,0.852 l -24.56,63.457 c -1.32,3.551 -0.43,4.301 2.79,2.269 l 58.55,-35.726 c 0.8,-0.613 1.27,-1.172 0.27,-1.953 l -35.47,-28.899 v 0" /><path
         id="path132"
         style="fill:#1a5dad;fill-opacity:1;fill-rule:nonzero;stroke:none"
         d="m 3267.58,1004.03 c 12.13,-12.042 22.07,-21.991 28.05,-26.639 4.03,-3.219 7.51,-5.219 11.78,-1.942 2.04,1.481 5.05,4.02 6.19,5.153 0.77,0.757 1.4,0.648 1.77,0.238 0.63,-0.59 0.35,-1.602 -1,-3 -6.96,-6.949 -15.2,-14.52 -15.85,-15.168 -0.6,-0.602 -8.13,-8.922 -11.86,-12.723 -1.41,-1.41 -2.3,-1.769 -3.04,-1.039 -0.41,0.41 -0.55,1.039 0.23,1.82 1.15,1.09 2.4,2.86 3.29,4.231 1.97,3.078 -0.14,6.43 -3.35,10.578 -4.62,5.902 -14.59,15.82 -26.74,27.91 l -53.37,53.071 -18.36,-18.91 c -7.64,-7.93 -9.75,-11.89 -8.77,-16.9 0.78,-3.53 1.28,-4.77 1.81,-6.02 0.6,-1.41 0.47,-2.06 0.01,-2.54 -0.39,-0.35 -1.02,-0.24 -1.76,0.48 -1.28,1.28 -9.63,14.59 -10.38,15.88 -0.5,1.03 -1.66,3.13 -1.11,3.6 0.91,0.89 3.35,0.89 7,4.06 4.04,3.27 9.07,7.86 10.53,9.36 l 47.12,47.32 c 8.01,8.09 10.13,12.77 11.15,13.72 0.64,0.64 1.39,-0.05 2.15,-0.81 3.76,-3.82 12.11,-12.81 13.53,-14.22 1.09,-1.13 1.24,-1.99 0.76,-2.55 -0.68,-0.63 -1.28,-0.5 -3.17,1.13 l -1.5,1.28 c -4.32,3.29 -10.14,3.23 -22.44,-8.62 l -16.03,-15.63 53.36,-53.12 v 0" /><path
         id="path134"
         style="fill:#1a5dad;fill-opacity:1;fill-rule:nonzero;stroke:none"
         d="m 3404.09,1160.48 c 13.27,-10.77 24.22,-19.62 30.55,-23.59 4.36,-2.87 8.08,-4.53 11.99,-0.84 1.82,1.72 4.59,4.54 5.59,5.76 0.68,0.83 1.29,0.82 1.73,0.45 0.68,-0.53 0.53,-1.59 -0.69,-3.13 -6.18,-7.58 -13.64,-15.95 -14.24,-16.63 -0.56,-0.7 -7.19,-9.72 -10.55,-13.89 -1.25,-1.5 -2.1,-2 -2.91,-1.32 -0.41,0.37 -0.6,0.95 0.07,1.82 0.99,1.21 2.08,3.07 2.84,4.58 1.63,3.19 -0.82,6.38 -4.39,10.2 -5.24,5.34 -16.1,14.24 -29.4,25.01 l -14.54,11.76 c -0.54,0.46 -1.14,0.28 -1.5,-0.18 l -47.57,-58.59 c -0.31,-0.39 -0.5,-0.95 0.19,-1.47 l 14.51,-11.8 c 13.27,-10.76 24.16,-19.62 30.54,-23.66 4.32,-2.86 8.09,-4.45 11.98,-0.76 1.85,1.72 4.61,4.54 5.61,5.76 0.68,0.82 1.31,0.79 1.7,0.45 0.71,-0.59 0.56,-1.62 -0.7,-3.11 -6.13,-7.63 -13.63,-15.98 -14.2,-16.7 -0.56,-0.68 -7.22,-9.71 -10.59,-13.88 -1.19,-1.47 -2.04,-1.97 -2.9,-1.28 -0.39,0.31 -0.58,0.93 0.08,1.77 1.01,1.23 2.07,3.11 2.82,4.58 1.67,3.18 -0.78,6.42 -4.35,10.13 -5.24,5.49 -16.17,14.33 -29.43,25.1 l -24.31,19.74 c -21.59,17.49 -25.45,20.66 -30.13,23.92 -4.91,3.56 -8.04,4.26 -12.69,0.52 -1.17,-0.91 -3.21,-3.16 -4.2,-4.41 -0.46,-0.53 -1.18,-0.87 -1.75,-0.42 -0.79,0.64 -0.55,1.58 0.7,3.1 5.04,6.22 12.53,14.62 13.13,15.3 0.5,0.73 7.17,9.75 10.59,13.85 1.19,1.54 1.98,2 2.85,1.32 0.55,-0.45 0.37,-1.22 -0.04,-1.72 -0.83,-1.01 -1.32,-1.95 -2.41,-3.82 -2.34,-4.3 -0.91,-7.31 3.73,-11.54 4.18,-3.86 8.03,-7.04 29.63,-24.5 l 2.88,-2.35 c 0.71,-0.57 1.19,-0.26 1.5,0.15 l 47.6,58.63 c 0.33,0.37 0.52,0.91 -0.17,1.48 l -2.87,2.38 c -21.62,17.45 -25.48,20.63 -30.13,23.95 -4.87,3.53 -8.03,4.21 -12.68,0.45 -1.15,-0.9 -3.25,-3.13 -4.24,-4.37 -0.41,-0.58 -1.14,-0.91 -1.74,-0.45 -0.8,0.68 -0.54,1.59 0.69,3.14 5.09,6.23 12.53,14.58 13.13,15.26 0.55,0.71 7.17,9.75 10.53,13.91 1.28,1.48 2.1,2 2.94,1.29 0.56,-0.45 0.34,-1.25 -0.12,-1.81 -0.72,-0.92 -1.27,-1.9 -2.36,-3.76 -2.32,-4.3 -0.85,-7.32 3.73,-11.49 4.23,-3.85 8.08,-7.02 29.64,-24.53 l 24.33,-19.76 v 0" /><path
         id="path136"
         style="fill:#1a5dad;fill-opacity:1;fill-rule:nonzero;stroke:none"
         d="m 3468.1,1194.6 c 5.7,-7.58 9.43,-14.24 5.78,-21.68 -0.63,-1.29 -1.82,-3.49 -2.49,-4.54 -0.5,-0.73 -0.59,-1.56 0,-1.9 0.9,-0.59 1.76,0.09 3.05,2.04 4.62,7 9.49,15.49 10.55,17.1 1.06,1.66 5.74,7.78 8.07,11.33 0.9,1.37 1.18,2.41 0.28,3.04 -0.61,0.37 -1.2,0.12 -1.88,-0.92 l -0.95,-1.47 c -1.63,-2.5 -5.07,-4.77 -8.02,-2.83 -2.7,1.73 -5.79,4.82 -8.65,8.64 l -20.49,26.16 c -0.54,0.81 -0.69,1.54 -0.22,2.26 l 20.98,32.05 c 0.48,0.7 1.02,0.81 1.77,0.7 l 45.69,-10.13 c 2.98,-0.68 3.75,-2.45 3.47,-3.53 -0.25,-0.68 -0.25,-1.32 0.35,-1.73 0.91,-0.54 1.96,1.09 3.98,3.79 6.99,10.11 14.17,20.96 15.6,23.13 1.07,1.69 1.66,3.24 0.82,3.78 -0.79,0.56 -1.32,0 -1.91,-0.87 -1,-1.48 -2.58,-3.63 -4.82,-5.35 -2.95,-2.55 -8.16,-5.31 -24.9,-1.99 -28.6,5.78 -105.41,22.68 -112.53,24.16 -5.82,1.17 -6.91,1.13 -7.52,0.22 -0.57,-0.91 -0.08,-2.09 3.7,-7.08 l 70.29,-94.38 z m -19.24,42.39 c -0.31,-0.43 -0.77,-0.54 -1.32,0.22 l -31.62,39.49 c -1.77,2.19 -1.27,2.92 1.44,2.19 l 49.49,-12.19 c 0.67,-0.21 1.12,-0.53 0.63,-1.25 l -18.62,-28.46 v 0" /><path
         id="path138"
         style="fill:#1a5dad;fill-opacity:1;fill-rule:nonzero;stroke:none"
         d="m 3589.2,1404.62 c -28.65,-12.54 -55.88,-6.5 -76.59,2.95 -14.65,6.64 -37.9,23.21 -48.45,51.48 -7.18,19.01 -8.4,43.55 6.87,77.15 3.97,8.77 10.17,20.67 16.98,30.48 5.32,7.59 9.82,13.94 13.41,20.76 1.3,2.29 2.38,2.31 3.67,1.73 1.75,-0.82 4.12,-2.65 11.75,-6.63 6.99,-3.73 18.99,-9.18 22.12,-10.89 3.22,-1.7 4.33,-2.7 3.7,-4.04 -0.64,-1.52 -2.3,-1.07 -5.37,0.37 -8.49,3.85 -19.04,4.42 -26.38,0.97 -10,-4.72 -23.56,-18.84 -32.31,-38.06 -13.16,-28.98 -10.75,-46.37 -6.82,-57.37 8.01,-22.94 25.76,-35.43 48.01,-45.55 41.69,-18.9 94.4,-4.2 115.62,42.49 7.45,16.37 11.35,30.16 6.31,42.94 -2.68,6.76 -11,13.94 -14.65,16.35 -2.21,1.55 -2.84,2.42 -2.25,3.71 0.51,1.07 2.22,0.83 3.95,0.01 1.54,-0.68 19.36,-11.94 25.8,-17.48 3.5,-3.16 3.72,-3.81 3.72,-8.54 -0.5,-10.3 -6.49,-27.59 -12.82,-41.56 -14.88,-32.7 -32.99,-51.07 -56.27,-61.27 v 0" /><path
         id="path140"
         style="fill:#1a5dad;fill-opacity:1;fill-rule:nonzero;stroke:none"
         d="m 3644.6,1617.14 c 24.87,-8.17 35.91,-11.13 39.97,-9.06 3.58,1.8 6.19,5.81 10.54,19.01 2.98,8.92 5.29,16.44 1.73,22.08 -1.98,3.12 -5.71,6.2 -8.69,7.76 -1.28,0.64 -2.06,1.27 -1.69,2.28 0.26,0.83 0.97,0.77 2.91,0.17 1.76,-0.58 11.58,-5.14 16.01,-8.13 3.52,-2.45 3.97,-3.2 1.07,-12.13 -8.09,-24.34 -12.75,-35.2 -16,-44.96 -0.49,-1.54 -3.27,-11.72 -4.98,-16.76 -0.61,-1.88 -1.19,-2.64 -2.21,-2.28 -0.53,0.19 -0.93,0.69 -0.58,1.68 0.51,1.56 0.86,3.69 0.98,5.32 0.45,3.59 -3,5.66 -7.69,7.96 -6.8,3.22 -20.18,7.62 -36.39,12.94 l -29.75,9.85 c -26.38,8.73 -31.11,10.26 -36.63,11.77 -5.85,1.49 -8.96,1.06 -12.02,-4.13 -0.79,-1.23 -1.89,-4.05 -2.41,-5.59 -0.23,-0.63 -0.79,-1.23 -1.45,-1.03 -1.04,0.35 -1.09,1.32 -0.44,3.16 2.46,7.59 6.49,18.07 6.8,18.91 0.28,0.89 3.86,13.34 5.52,18.43 0.59,1.89 1.21,2.61 2.23,2.27 0.71,-0.21 0.8,-1 0.56,-1.68 -0.41,-1.18 -0.98,-3.58 -1.32,-5.72 -0.76,-5.19 1.69,-7.49 7.46,-9.77 5.32,-2.16 10.03,-3.72 36.42,-12.4 l 30.05,-9.95 v 0" /><path
         id="path142"
         style="fill:#1a5dad;fill-opacity:1;fill-rule:nonzero;stroke:none"
         d="m 3677.83,1731.69 c 16.58,-4.22 30.16,-7.74 37.62,-8.76 5.17,-0.82 9.21,-0.73 11.22,4.25 1.03,2.33 2.29,6.06 2.71,7.6 0.24,1.05 0.83,1.25 1.4,1.1 0.84,-0.23 1.17,-1.21 0.62,-3.1 -2.44,-9.46 -5.75,-20.23 -5.93,-21.07 -0.28,-0.86 -2.51,-11.88 -3.91,-17.03 -0.45,-1.91 -1.01,-2.68 -2.01,-2.42 -0.57,0.15 -0.98,0.62 -0.75,1.66 0.41,1.58 0.63,3.73 0.69,5.32 0.18,3.66 -3.38,5.51 -8.21,7.48 -6.99,2.74 -20.65,6.26 -37.19,10.49 l -30.32,7.81 c -26.94,6.97 -31.74,8.17 -37.31,9.26 -5.99,1.14 -9.37,0.23 -11.22,-3.35 -0.97,-1.8 -1.73,-4.01 -2.04,-5.23 -0.18,-0.63 -0.69,-1.23 -1.4,-1.06 -1.05,0.24 -1.17,1.19 -0.69,3.1 1.51,5.69 4.82,16.44 5.04,17.27 0.22,0.86 2.48,11.87 3.82,17.03 0.5,1.9 1.03,2.63 2.1,2.4 0.72,-0.14 0.84,-1 0.68,-1.63 -0.28,-1.23 -0.41,-2.32 -0.59,-4.45 -0.31,-4.9 2.2,-7.02 8.21,-8.91 5.4,-1.82 10.23,-2.99 37.11,-9.94 l 30.35,-7.82 v 0" /><path
         id="path144"
         style="fill:#1a5dad;fill-opacity:1;fill-rule:nonzero;stroke:none"
         d="m 3724.13,1787.02 c 8.17,-4.76 14.25,-9.5 13.84,-17.73 -0.12,-1.44 -0.37,-3.92 -0.61,-5.12 -0.17,-0.91 0.08,-1.63 0.77,-1.72 1.05,-0.28 1.57,0.72 2.02,2.99 1.47,8.27 2.72,18.02 3.07,19.9 0.34,1.94 2.22,9.39 3.01,13.57 0.24,1.55 0.09,2.69 -0.96,2.89 -0.72,0.13 -1.15,-0.34 -1.36,-1.57 l -0.35,-1.72 c -0.51,-3 -2.79,-6.4 -6.27,-5.78 -3.14,0.6 -7.21,2.26 -11.27,4.59 l -29.07,16.15 c -0.87,0.52 -1.28,1.12 -1.09,2.02 l 6.81,37.66 c 0.14,0.86 0.55,1.14 1.29,1.34 l 46.09,8.49 c 3,0.57 4.4,-0.79 4.54,-1.88 0,-0.73 0.27,-1.37 1,-1.45 1.04,-0.23 1.38,1.72 2.13,4.99 2.54,12.08 4.9,24.85 5.36,27.48 0.37,1.93 0.29,3.57 -0.75,3.75 -0.88,0.16 -1.2,-0.52 -1.35,-1.53 -0.35,-1.78 -1.01,-4.4 -2.35,-6.87 -1.73,-3.44 -5.46,-8.03 -22.17,-11.52 -28.57,-5.86 -105.89,-20.23 -113.05,-21.66 -5.82,-1.14 -6.81,-1.68 -6.99,-2.73 -0.19,-1.04 0.72,-1.95 6.12,-5.09 l 101.59,-59.45 z m -34.28,31.54 c -0.07,-0.52 -0.48,-0.84 -1.31,-0.32 l -44.51,24 c -2.42,1.37 -2.31,2.23 0.5,2.59 l 50.33,8.1 c 0.73,0.04 1.22,-0.06 1.04,-0.94 l -6.05,-33.43 v 0" /><path
         id="path146"
         style="fill:#1a5dad;fill-opacity:1;fill-rule:nonzero;stroke:none"
         d="m 3719.06,1969.93 c 16.98,-1.73 30.99,-3.14 38.5,-3 5.15,0 9.22,0.72 10.42,5.95 0.61,2.41 1.37,6.27 1.5,7.88 0.13,1.04 0.73,1.39 1.22,1.34 0.91,-0.14 1.31,-1.02 1.15,-3 -1,-9.72 -2.62,-20.83 -2.78,-21.76 -0.04,-0.91 -0.63,-12.08 -1.17,-17.39 -0.19,-1.95 -0.67,-2.77 -1.71,-2.73 -0.52,0.14 -1.04,0.5 -0.89,1.6 0.17,1.59 0,3.77 -0.16,5.33 -0.4,3.66 -4.19,4.93 -9.23,6.16 -7.4,1.63 -21.35,3.02 -38.36,4.77 l -74.95,7.49 -2.24,-26.26 c -0.97,-10.94 -0.17,-15.35 3.8,-18.62 2.85,-2.22 4,-2.88 5.17,-3.54 1.38,-0.69 1.7,-1.22 1.62,-1.95 -0.08,-0.52 -0.6,-0.84 -1.65,-0.69 -1.82,0.17 -16.67,5.23 -18.08,5.7 -0.99,0.48 -3.21,1.43 -3.16,2.12 0.1,1.27 2.07,2.82 2.91,7.56 1.02,5.09 2.07,11.78 2.27,13.9 l 6.71,66.47 c 1.13,11.31 -0.16,16.26 0,17.7 0.08,0.88 1.17,0.74 2.23,0.65 5.3,-0.49 17.46,-2.27 19.4,-2.5 1.57,-0.17 2.28,-0.72 2.22,-1.45 -0.12,-0.91 -0.68,-1.18 -3.19,-1.13 l -1.95,0.04 c -5.39,-0.18 -9.89,-3.86 -11.94,-20.81 l -2.6,-22.27 74.94,-7.56 v 0" /><path
         id="path148"
         style="fill:#1a5dad;fill-opacity:1;fill-rule:nonzero;stroke:none"
         d="m 3726.29,2177.38 c 17.11,0 31.11,0 38.6,0.91 5.24,0.51 9.1,1.59 9.82,6.95 0.34,2.48 0.72,6.42 0.68,8.01 0,1.04 0.53,1.39 1.05,1.39 0.9,0 1.43,-0.87 1.43,-2.82 0,-9.81 -0.45,-20.97 -0.45,-21.86 0,-0.87 0.45,-12.04 0.45,-17.4 0,-1.96 -0.34,-2.85 -1.43,-2.85 -0.52,0 -1.05,0.38 -1.05,1.41 0,1.64 -0.34,3.76 -0.68,5.36 -0.72,3.56 -4.58,4.43 -9.82,5.14 -7.49,0.91 -21.55,0.91 -38.64,0.91 h -18.72 c -0.7,0 -1.08,-0.53 -1.08,-1.07 v -75.62 c 0,-0.5 0.22,-0.97 1.08,-0.97 h 18.72 c 17.09,0 31.15,0 38.64,0.83 5.24,0.6 9.1,1.61 9.82,6.95 0.34,2.5 0.72,6.45 0.68,8 0,1.09 0.53,1.46 1.05,1.46 0.9,0 1.43,-0.94 1.43,-2.87 0,-9.79 -0.45,-20.98 -0.45,-21.87 0,-0.89 0.45,-12.02 0.45,-17.37 0,-1.96 -0.34,-2.81 -1.43,-2.81 -0.52,0 -1.05,0.31 -1.05,1.35 0,1.61 -0.34,3.75 -0.68,5.38 -0.72,3.55 -4.58,4.44 -9.82,5.16 -7.49,0.91 -21.49,0.91 -38.64,0.91 h -31.34 c -27.69,0 -32.7,0 -38.37,-0.41 -6.06,-0.31 -8.87,-1.77 -10.15,-7.59 -0.35,-1.45 -0.54,-4.49 -0.54,-6.1 0,-0.71 -0.31,-1.39 -1.01,-1.39 -1.07,0 -1.44,0.86 -1.44,2.84 0,8.01 0.41,19.14 0.41,20.03 0,0.89 -0.41,12.08 -0.41,17.44 0,1.98 0.37,2.81 1.44,2.81 0.7,0 1.01,-0.67 1.01,-1.33 0,-1.29 0.19,-2.39 0.54,-4.5 0.9,-4.86 3.96,-6.25 10.15,-6.59 5.67,-0.33 10.68,-0.33 38.37,-0.33 h 3.71 c 0.9,0 1.1,0.47 1.1,0.97 v 75.62 c 0,0.54 -0.2,1.07 -1.1,1.07 h -3.71 c -27.69,0 -32.7,0 -38.37,-0.36 -6.06,-0.33 -8.87,-1.78 -10.15,-7.68 -0.35,-1.4 -0.54,-4.4 -0.54,-6.06 0,-0.68 -0.31,-1.42 -1.01,-1.42 -1.07,0 -1.44,0.91 -1.44,2.85 0,8.06 0.41,19.23 0.41,20.1 0,0.89 -0.41,12.05 -0.41,17.4 0,1.96 0.37,2.83 1.44,2.83 0.7,0 1.01,-0.7 1.01,-1.37 0,-1.27 0.19,-2.35 0.54,-4.49 0.9,-4.79 3.96,-6.22 10.15,-6.61 5.67,-0.34 10.68,-0.34 38.37,-0.34 h 31.38 v 0" /><path
         id="path150"
         style="fill:#1a5dad;fill-opacity:1;fill-rule:nonzero;stroke:none"
         d="m 3699.81,2312.46 c 12.51,0 22.62,10.13 22.62,22.6 0,12.47 -10.11,22.61 -22.62,22.61 -12.45,0 -22.58,-10.14 -22.58,-22.61 0,-12.47 10.13,-22.6 22.58,-22.6 v 0" /><path
         id="path152"
         style="fill:#1a5dad;fill-opacity:1;fill-rule:nonzero;stroke:none"
         d="m 558.828,2310.64 c 12.473,0 22.602,10.11 22.602,22.57 0,12.51 -10.129,22.61 -22.602,22.61 -12.512,0 -22.59,-10.1 -22.59,-22.61 0,-12.46 10.078,-22.57 22.59,-22.57 v 0" /><g
         id="g154"><g
           clip-path="url(#clipPath160)"
           id="g156"><path
             id="path162"
             style="fill:#2a97db;fill-opacity:1;fill-rule:nonzero;stroke:none"
             d="M 3076.42,3092.09 H 1183.01 l 0.25,-1380.61 c -1.08,-16.35 -1.79,-32.79 -1.79,-49.32 0,-459.57 423.77,-832.14 946.52,-832.14 513.45,0 931.07,359.49 945.81,807.7 h 2.54 l 0.08,1454.37 v 0" /><path
             id="path164"
             style="fill:#1a5dad;fill-opacity:1;fill-rule:nonzero;stroke:none"
             d="m 1183.01,3092.09 0.14,-732.76 c 0,0 349.97,137.45 813.48,60.49 0,0 628.44,-139.21 1077.29,-31.14 l 2.5,703.41 H 1183.01 v 0" /><path
             id="path166"
             style="fill:#ffffff;fill-opacity:1;fill-rule:nonzero;stroke:none"
             d="m 1554.44,2742.14 c 0,-57.14 0.56,-98.66 1.08,-108.89 0.55,-13.48 1.63,-35.02 5.93,-40.94 7.04,-10.26 28.05,-21.56 70.61,-21.56 54.99,0 91.63,10.79 123.98,38.79 34.45,29.64 45.26,78.69 45.26,134.2 0,68.44 -28.56,112.62 -51.75,134.75 -49.58,47.43 -111.05,53.87 -153.05,53.87 -10.79,0 -30.75,-1.6 -35.05,-3.77 -4.85,-2.16 -7.44,-8.13 -7.44,-13.92 -0.52,-17.96 0.43,-62.07 0.43,-104.64 v -67.89 z m -67.36,59.28 c 0,81.91 0,97.02 -1.07,114.27 -1.09,18.3 -5.39,26.93 -23.19,30.69 -4.28,1.08 -13.49,1.64 -20.99,1.64 -5.97,0 -9.18,1.09 -9.18,4.83 0,3.78 3.77,4.86 11.85,4.86 28.56,0 62.52,-1.61 77.58,-1.61 16.77,0 50.68,1.61 83.04,1.61 67.37,0 157.36,0 216.1,-61.44 26.95,-28.03 52.28,-72.78 52.28,-136.89 0,-67.91 -28.51,-119.65 -58.72,-150.36 -24.8,-25.36 -80.85,-63.63 -180.57,-63.63 -39.34,0 -87.81,6.48 -114.8,6.48 -12.39,0 -46.35,-1.6 -67.86,-1.6 -7.05,0 -10.81,1.6 -10.81,5.36 0,2.72 2.15,4.33 8.59,4.33 8.1,0 14.57,1.06 19.41,2.15 10.78,2.16 13.51,14.03 15.67,29.66 2.67,22.61 2.67,65.2 2.67,114.79 v 94.86 0" /><path
             id="path168"
             style="fill:#ffffff;fill-opacity:1;fill-rule:nonzero;stroke:none"
             d="m 1992.27,2710.85 c -13.96,0 -25.27,11.13 -25.27,25.28 -0.21,13.96 11.15,25.24 25.27,25.24 13.93,0 25.25,-11.28 25.25,-25.24 0,-13.93 -11.32,-25.28 -25.25,-25.28 v 0" /><path
             id="path170"
             style="fill:#ffffff;fill-opacity:1;fill-rule:nonzero;stroke:none"
             d="m 2136.19,2801.42 c 0,81.91 0,97.02 -1.06,114.27 -1.06,18.3 -6.48,27.45 -18.31,30.16 -5.94,1.61 -12.96,2.17 -19.41,2.17 -5.39,0 -8.63,1.09 -8.63,5.37 0,3.24 4.32,4.32 12.92,4.32 20.51,0 54.43,-1.61 70.06,-1.61 13.46,0 45.31,1.61 65.75,1.61 7.01,0 11.36,-1.08 11.36,-4.32 0,-4.28 -3.25,-5.37 -8.66,-5.37 -5.41,0 -9.7,-0.56 -16.18,-1.64 -14.52,-2.67 -18.83,-11.83 -19.93,-30.69 -1.09,-17.25 -1.09,-32.36 -1.09,-114.27 v -94.86 c 0,-52.27 0,-94.87 2.19,-118.01 1.63,-14.56 5.41,-24.28 21.56,-26.44 7.51,-1.09 19.39,-2.15 27.44,-2.15 5.97,0 8.65,-1.61 8.65,-4.33 0,-3.76 -4.29,-5.36 -10.24,-5.36 -35.54,0 -69.54,1.6 -84.07,1.6 -12.41,0 -46.33,-1.6 -67.9,-1.6 -7.02,0 -10.78,1.6 -10.78,5.36 0,2.72 2.16,4.33 8.63,4.33 8.07,0 14.51,1.06 19.39,2.15 10.77,2.16 14,11.31 15.63,26.95 2.68,22.63 2.68,65.23 2.68,117.5 v 94.86 0" /><path
             id="path172"
             style="fill:#ffffff;fill-opacity:1;fill-rule:nonzero;stroke:none"
             d="m 2380.63,2710.85 c -13.95,0 -25.28,11.13 -25.28,25.28 -0.18,13.96 11.11,25.24 25.28,25.24 13.92,0 25.25,-11.28 25.25,-25.24 0,-13.93 -11.33,-25.28 -25.25,-25.28 v 0" /><path
             id="path174"
             style="fill:#ffffff;fill-opacity:1;fill-rule:nonzero;stroke:none"
             d="m 2596.22,2927.51 -80.3,-2.14 c -31.26,-1.09 -44.2,-3.79 -52.29,-15.61 -5.37,-8.13 -8.08,-14.58 -9.18,-18.88 -1.09,-4.32 -2.67,-6.48 -5.92,-6.48 -3.73,0 -4.78,2.72 -4.78,8.64 0,8.59 10.19,57.67 11.27,61.99 1.59,6.97 3.24,10.24 6.48,10.24 4.32,0 9.67,-5.41 23.16,-6.48 15.63,-1.61 36.12,-2.69 53.89,-2.69 h 213.44 c 34.47,0 47.44,5.37 51.73,5.37 3.77,0 4.34,-3.21 4.34,-11.32 0,-11.32 -1.63,-48.52 -1.63,-62.52 -0.54,-5.39 -1.63,-8.58 -4.84,-8.58 -4.34,0 -5.41,2.67 -5.93,10.75 l -0.57,5.93 c -1.07,14.03 -15.62,29.1 -63.57,30.19 l -67.94,1.59 v -220.95 c 0,-49.59 0,-92.18 2.73,-115.34 1.58,-15.08 4.83,-26.95 20.98,-29.11 7.53,-1.09 19.43,-2.15 27.51,-2.15 5.91,0 8.59,-1.61 8.59,-4.33 0,-3.76 -4.27,-5.36 -10.22,-5.36 -35.55,0 -69.54,1.6 -84.62,1.6 -12.37,0 -46.37,-1.6 -67.88,-1.6 -7.01,0 -10.78,1.6 -10.78,5.36 0,2.72 2.13,4.33 8.63,4.33 8.07,0 14.54,1.06 19.39,2.15 10.76,2.16 14,14.03 15.59,29.66 2.72,22.61 2.72,65.2 2.72,114.79 v 220.95 0" /><path
             id="path176"
             style="fill:none;stroke:#f9b118;stroke-width:63.4090004;stroke-linecap:butt;stroke-linejoin:miter;stroke-miterlimit:4;stroke-dasharray:none;stroke-opacity:1"
             d="m 3139.47,2397.56 c 0,0 -212.96,-51.88 -489.61,-61.56 -277.14,-9.69 -733.61,101.06 -1076.82,89.08 -274.1,-9.58 -539.1,-106.32 -539.1,-106.32" /></g></g><path
         id="path178"
         style="fill:#ffffff;fill-opacity:1;fill-rule:nonzero;stroke:none"
         d="m 2110.68,1188.95 v 285.75 l -123.97,-71.44 -83.02,48.21 206.99,119.68 v 248.53 l -98.31,-57.42 -78.78,46.42 177.09,101.92 v 370.65 l -66.87,-38.48 v -101.95 l -68.07,-39.08 v 101.36 l -73.89,-42.71 V 1931.37 L 1787.08,1998.54 1574.29,1874 v -244.24 l 119.37,-70.19 -212.87,-124.61 v -85.44 l 87.1,51.28 v -78.13 l -87.1,-50.73 v -72.04 l 65.71,-40.28 87.3,51.87 68.4,-40.85 -87.93,-50.68 72.04,-42.78 215.54,122.72 v -118.43 l 208.83,-123.931 v 29.293 l -4.29,-2.41 -172.2,100.708 176.49,103.82 v 0" /><path
         id="path180"
         style="fill:#ffffff;fill-opacity:1;fill-rule:nonzero;stroke:none"
         d="m 2110.68,1188.95 v 285.75 l 123.97,-71.44 83.02,48.21 -206.99,119.68 v 248.53 l 98.3,-57.42 78.78,46.42 -177.08,101.92 v 370.65 l 66.8,-38.48 v -101.95 l 68.14,-39.08 v 101.36 l 73.85,-42.71 v -229.02 l 114.83,67.17 212.74,-124.54 v -244.24 l -119.36,-70.19 212.9,-124.61 v -85.44 l -87.11,51.28 v -78.13 l 87.11,-50.73 v -72.04 l -65.74,-40.28 -87.34,51.87 -68.37,-40.85 87.92,-50.68 -72.06,-42.78 -215.52,122.72 V 1081.47 L 2110.68,957.539 v 29.293 l 4.28,-2.41 172.17,100.708 -176.45,103.82 v 0" /><path
         id="path182"
         style="fill:#2a97db;fill-opacity:1;fill-rule:nonzero;stroke:none"
         d="m 1775.16,1762.26 v 205.17 l -183.49,-107.51 v -204.53 l 183.49,106.87 v 0" /><path
         id="path184"
         style="fill:#1a5dad;fill-opacity:1;fill-rule:nonzero;stroke:none"
         d="m 1785.26,1742.14 -182.58,-105.06 112.34,-65.31 70.82,42.12 94.65,-56.16 110.49,64.07 -205.72,120.34 v 0" /><path
         id="path186"
         style="fill:#2a97db;fill-opacity:1;fill-rule:nonzero;stroke:none"
         d="m 2101.83,1789.13 -80.63,-46.43 v -125.74 l -126.87,-73.91 v -74.44 l 207.5,121.47 v 199.05 0" /><path
         id="path188"
         style="fill:#2a97db;fill-opacity:1;fill-rule:nonzero;stroke:none"
         d="m 1922.6,2147.53 v -321.77 l 179.23,102.61 v 322.96 l -40.6,-23.22 v -99.49 l -102.91,-59.83 v 98.86 l -35.72,-20.12 v 0" /><path
         id="path190"
         style="fill:#1a5dad;fill-opacity:1;fill-rule:nonzero;stroke:none"
         d="m 2002.9,1639.53 v 103.8 l -101.05,60.45 v 103.79 l -108.07,63.51 v -208.21 l 209.12,-123.34 v 0" /><path
         id="path192"
         style="fill:#1a5dad;fill-opacity:1;fill-rule:nonzero;stroke:none"
         d="m 2119.51,1789.13 80.59,-46.43 v -125.74 l 126.9,-73.91 v -74.44 l -207.49,121.47 v 199.05 0" /><path
         id="path194"
         style="fill:#1a5dad;fill-opacity:1;fill-rule:nonzero;stroke:none"
         d="m 2298.71,2147.53 v -321.77 l -179.2,102.61 v 322.96 l 40.62,-23.22 v -99.49 l 102.88,-59.83 v 98.86 l 35.7,-20.12 v 0" /><path
         id="path196"
         style="fill:#2a97db;fill-opacity:1;fill-rule:nonzero;stroke:none"
         d="m 2218.44,1639.53 v 103.8 l 101.03,60.45 v 103.79 l 108.08,63.51 v -208.21 l -209.11,-123.34 v 0" /><path
         id="path198"
         style="fill:#1a5dad;fill-opacity:1;fill-rule:nonzero;stroke:none"
         d="m 2446.17,1762.26 v 205.17 l 183.48,-107.51 v -204.53 l -183.48,106.87 v 0" /><path
         id="path200"
         style="fill:#1a5dad;fill-opacity:1;fill-rule:nonzero;stroke:none"
         d="m 2436.11,1742.14 182.54,-105.06 -112.34,-65.31 -70.83,42.12 -94.62,-56.16 -110.53,64.07 205.78,120.34 v 0" /><path
         id="path202"
         style="fill:#1a5dad;fill-opacity:1;fill-rule:nonzero;stroke:none"
         d="m 2720.21,1219.48 -274.04,158.75 v 203.89 l 274.04,-158.74 v -39.05 l -87.92,51.9 -0.16,-122.72 88.08,-50.7 v -43.33 0" /><path
         id="path204"
         style="fill:#2a97db;fill-opacity:1;fill-rule:nonzero;stroke:none"
         d="M 2101.83,1446.73 V 1208.48 L 1922.6,1104.57 v 108.3 l 72.66,41.4 v 132.51 l 106.57,59.95 v 0" /><path
         id="path206"
         style="fill:#2a97db;fill-opacity:1;fill-rule:nonzero;stroke:none"
         d="m 2348.17,1538.06 v -92.84 l -102.55,-59.43 v -117.21 l 181.93,109.09 v 207.56 l -79.38,-47.17 v 0" /><path
         id="path208"
         style="fill:#1a5dad;fill-opacity:1;fill-rule:nonzero;stroke:none"
         d="m 2119.51,1446.73 v -238.25 l 179.2,-103.91 v 108.3 l -72.63,41.4 v 132.51 l -106.57,59.95 v 0" /><path
         id="path210"
         style="fill:#1a5dad;fill-opacity:1;fill-rule:nonzero;stroke:none"
         d="m 2260.24,1257.12 176.68,104.22 271.13,-157.16 -32.62,-21.13 -88.75,52.91 -107.42,-62.7 89.57,-52.06 -36.66,-21.2 -271.93,157.12 v 0" /><path
         id="path212"
         style="fill:#2a97db;fill-opacity:1;fill-rule:nonzero;stroke:none"
         d="m 1501.14,1219.48 274.02,158.75 v 203.89 l -274.02,-158.74 v -39.05 l 87.89,51.9 0.21,-122.72 -88.1,-50.7 v -43.33 0" /><path
         id="path214"
         style="fill:#1a5dad;fill-opacity:1;fill-rule:nonzero;stroke:none"
         d="m 1873.16,1538.06 v -92.84 l 102.58,-59.43 v -117.21 l -181.96,109.09 v 207.56 l 79.38,-47.17 v 0" /><path
         id="path216"
         style="fill:#1a5dad;fill-opacity:1;fill-rule:nonzero;stroke:none"
         d="m 1961.09,1257.12 -176.68,104.22 -271.09,-157.16 32.6,-21.13 88.72,52.91 107.46,-62.7 -89.57,-52.06 36.63,-21.2 271.93,157.12 v 0" /><path
         id="path218"
         style="fill:#1a5dad;fill-opacity:1;fill-rule:nonzero;stroke:none"
         d="m 2287.13,1085.13 -176.67,-102.759 -176.27,102.759 176.49,103.82 176.45,-103.82 v 0" /><path
         id="path220"
         style="fill:#1a5dad;fill-opacity:1;fill-rule:nonzero;stroke:none"
         d="m 2317.67,1451.47 -206.99,119.68 -206.99,-119.68 83.02,-48.21 123.97,71.44 123.97,-71.44 83.02,48.21 v 0" /><path
         id="path222"
         style="fill:#1a5dad;fill-opacity:1;fill-rule:nonzero;stroke:none"
         d="m 2208.98,1762.26 78.78,46.42 -177.08,101.92 -177.09,-101.92 78.78,-46.42 98.31,57.42 98.3,-57.42 v 0" /><path
         id="path224"
         style="fill:none;stroke:#ffffff;stroke-width:10.56200027;stroke-linecap:butt;stroke-linejoin:miter;stroke-miterlimit:4;stroke-dasharray:none;stroke-opacity:1"
         d="m 2110.68,957.539 208.79,123.931 v 118.43 l 215.52,-122.72 72.06,42.78 -87.92,50.68 68.37,40.85 87.34,-51.87 65.74,40.28 v 72.04 l -87.11,50.73 v 78.13 l 87.11,-51.28 v 85.44 l -212.9,124.61 119.36,70.19 V 1874 l -212.74,124.54 -114.83,-67.17 v 229.02 l -73.85,42.71 v -101.36 l -68.14,39.08 v 101.95 l -66.8,38.48 -66.87,-38.48 v -101.95 l -68.07,-39.08 v 101.36 l -73.89,-42.71 V 1931.37 L 1787.08,1998.54 1574.29,1874 v -244.24 l 119.37,-70.19 -212.87,-124.61 v -85.44 l 87.1,51.28 v -78.13 l -87.1,-50.73 v -72.04 l 65.71,-40.28 87.3,51.87 68.4,-40.85 -87.93,-50.68 72.04,-42.78 215.54,122.72 v -118.43 l 208.83,-123.931 z" /><path
         id="path226"
         style="fill:#ffffff;fill-opacity:1;fill-rule:nonzero;stroke:none"
         d="m 3080.4,2352.51 h -4.47 v 64.03 h 4.47 v -64.03 0" /></g></g></svg>